<svg xmlns="http://www.w3.org/2000/svg" xmlns:v="https://svgstorm.com"
viewBox = "0 0 433 577"
width="433"
height="577">
<g fill="None" fill-opacity="0.0" stroke="#E1E9ED" stroke-opacity="1.00" stroke-width="0.3"><path d="
M 0.00 403.00 
C 5.63 397.15 10.99 394.35 16.75 388.75 C 22.50 383.15 29.12 380.44 36.08 377.08 C 43.04 373.72 50.20 369.41 58.02 368.02 C 65.85 366.64 73.52 360.86 81.02 359.02 C 88.53 357.19 96.33 352.91 103.02 350.03 C 109.72 347.14 120.98 346.34 126.25 342.25 C 131.52 338.15 147.26 339.29 148.00 332.00
C 147.82 331.57 148.00 331.00 148.00 331.00
C 147.94 327.86 146.73 327.09 145.00 325.00
C 141.77 321.11 138.88 316.85 137.00 312.00
C 134.89 306.55 134.05 300.56 132.00 295.00
C 128.78 288.64 128.00 284.78 128.00 277.00
C 128.00 273.67 128.00 270.33 128.00 267.00
C 128.00 265.00 128.00 263.00 128.00 261.00
C 126.97 250.39 119.20 234.91 120.00 224.00 C 120.80 213.09 109.09 189.61 126.00 195.00
C 126.25 194.74 126.00 194.00 126.00 194.00
C 126.00 185.22 126.23 176.45 125.00 168.00
C 124.44 164.16 123.48 160.88 123.00 157.00
C 122.75 154.95 122.21 152.87 122.00 151.00
C 121.19 147.45 120.06 142.51 122.00 139.00
C 122.39 138.29 122.68 137.72 123.00 137.00
C 123.13 136.02 122.30 132.89 123.00 131.00
C 115.31 131.73 112.68 121.63 110.00 116.00
C 109.92 115.51 110.00 114.50 110.00 114.00
C 105.43 103.26 114.73 90.19 116.93 79.93 C 119.12 69.66 125.62 59.92 134.00 56.00
C 135.68 54.96 137.40 54.15 139.00 53.00
C 144.26 49.24 150.79 51.67 155.25 47.25 C 159.70 42.82 164.40 41.55 171.00 40.00
C 171.47 39.89 172.00 40.00 172.00 40.00
C 174.99 37.78 178.65 39.63 182.00 40.00
C 187.82 40.65 192.29 34.84 197.00 35.00
C 197.75 35.02 198.90 34.89 199.00 36.00
C 199.05 36.50 199.00 37.00 199.00 37.00
C 200.87 38.55 203.86 37.55 206.00 37.00
C 209.71 36.56 209.76 36.54 213.00 39.00
C 216.79 41.87 219.25 41.25 223.00 43.00
C 224.56 40.44 223.50 37.12 226.00 35.00
C 227.84 37.14 231.60 34.66 233.00 37.00
C 235.89 37.94 239.56 38.97 241.00 42.00
C 244.38 40.09 250.23 39.54 253.00 43.00
C 257.42 45.21 262.61 48.51 267.00 50.00
C 267.99 50.00 269.01 49.95 270.00 50.00
C 274.22 50.22 275.89 52.46 279.00 54.00
C 282.70 55.02 281.67 53.87 285.00 56.00
C 288.57 57.24 291.79 59.53 295.00 61.00
C 296.20 61.21 296.89 61.48 298.00 62.00
C 303.65 63.38 313.47 76.81 317.00 83.00
C 322.97 93.49 321.29 103.99 316.00 114.00
C 313.94 119.32 311.16 122.58 306.75 126.75 C 302.34 130.92 304.00 140.05 304.00 146.00
C 304.00 147.00 303.97 148.00 304.00 149.00
C 304.15 154.90 302.51 161.68 302.00 167.00
C 302.00 170.34 301.58 172.96 301.00 176.00
C 299.99 181.34 297.31 189.22 302.25 193.75 C 307.19 198.28 302.69 203.10 302.01 209.01 C 301.32 214.92 302.42 223.81 302.00 230.00
C 301.72 234.06 300.41 236.69 299.00 240.00
C 295.02 249.32 297.37 262.42 296.00 272.00
C 295.63 281.82 292.92 292.46 290.67 301.67 C 288.43 310.88 282.34 316.49 279.00 325.00
C 278.80 325.67 279.38 329.38 279.00 331.00
C 313.20 342.65 344.99 360.23 380.00 369.00
C 383.61 370.20 386.78 372.51 390.00 374.00
C 404.87 378.96 419.56 385.00 433.00 393.00
L 433.00 0.00
L 0.00 0.00
L 0.00 403.00 Z"/>
</g>
<g fill="None" fill-opacity="0.0" stroke="#D7DDE2" stroke-opacity="1.00" stroke-width="0.3"><path d="
M 182.00 40.00 
C 185.37 41.01 187.41 40.29 191.00 42.00
C 191.02 37.09 197.80 39.59 197.00 35.00
C 192.29 34.84 187.82 40.65 182.00 40.00 Z"/>
</g>
<g fill="None" fill-opacity="0.0" stroke="#BEC7CD" stroke-opacity="1.00" stroke-width="0.3"><path d="
M 182.00 40.00 
C 178.65 39.63 174.99 37.78 172.00 40.00
C 173.58 39.64 175.40 40.27 177.00 40.00
C 176.10 44.31 179.74 43.25 182.00 44.00
C 180.74 45.89 177.20 45.05 176.00 47.00
C 179.59 48.35 184.50 47.60 185.00 43.00
C 191.70 45.51 194.24 38.71 199.00 36.00
C 198.90 34.89 197.75 35.02 197.00 35.00
C 197.80 39.59 191.02 37.09 191.00 42.00
C 187.41 40.29 185.37 41.01 182.00 40.00 Z"/>
</g>
<g fill="None" fill-opacity="0.0" stroke="#BEC7CD" stroke-opacity="1.00" stroke-width="0.3"><path d="
M 213.00 39.00 
C 211.39 38.06 209.85 37.25 208.00 37.00
C 213.16 41.14 217.92 43.76 224.00 45.00
C 224.61 40.46 229.80 40.13 232.00 37.00
C 233.44 39.79 236.38 41.21 237.00 44.00
C 238.20 41.26 244.44 43.68 245.00 46.00
C 251.60 36.92 258.65 52.60 267.00 50.00
C 262.61 48.51 257.42 45.21 253.00 43.00
C 248.82 41.61 244.73 40.64 241.00 43.00
C 239.77 39.01 234.60 40.21 233.00 37.00
C 231.60 34.66 227.84 37.14 226.00 35.00
C 223.50 37.12 224.56 40.44 223.00 43.00
C 219.25 41.25 216.79 41.87 213.00 39.00 Z"/>
</g>
<g fill="None" fill-opacity="0.0" stroke="#010403" stroke-opacity="1.00" stroke-width="0.3"><path d="
M 172.00 40.00 
C 172.00 40.00 171.47 39.89 171.00 40.00
C 166.43 43.67 159.83 42.78 156.23 47.23 C 152.63 51.69 147.05 54.60 141.00 55.00
C 141.36 53.20 140.80 51.58 139.00 53.00
C 137.40 54.15 135.68 54.96 134.00 56.00
C 117.79 66.03 110.00 95.87 110.00 114.00
C 110.00 114.50 109.92 115.51 110.00 116.00
C 111.04 118.21 111.72 117.40 113.00 116.00
C 115.51 118.77 116.52 122.19 116.00 126.00
C 120.17 125.74 119.32 126.20 118.00 129.00
C 122.66 129.37 125.61 132.38 123.00 137.00
C 122.68 137.72 122.39 138.29 122.00 139.00
C 121.29 142.34 121.62 147.59 122.00 151.00
C 122.21 152.87 122.75 154.95 123.00 157.00
C 123.24 157.92 124.15 160.28 125.00 161.00
C 127.06 147.49 134.05 140.02 142.26 130.26 C 150.47 120.50 165.14 120.23 176.68 118.34 C 188.21 116.44 202.83 123.45 212.00 116.00
C 222.55 126.63 237.07 122.17 249.22 124.78 C 261.38 127.38 279.23 130.00 284.78 143.22 C 290.33 156.45 298.66 165.35 298.00 180.00
C 299.64 179.29 299.29 176.62 301.00 176.00
C 301.58 172.96 302.00 170.34 302.00 167.00
C 302.00 160.47 302.98 154.67 304.00 149.00
C 303.97 148.00 304.00 147.00 304.00 146.00
C 302.88 140.88 302.91 134.53 302.00 129.00
C 312.40 122.08 320.10 106.93 319.00 94.00 C 317.90 81.07 306.02 70.54 298.00 62.00
C 296.89 61.48 296.20 61.21 295.00 61.00
C 290.18 60.17 285.92 56.75 281.26 56.40 C 276.59 56.05 274.57 51.04 270.00 50.00
C 269.01 49.95 267.99 50.00 267.00 50.00
C 258.65 52.60 251.60 36.92 245.00 46.00
C 244.44 43.68 238.20 41.26 237.00 44.00
C 236.38 41.21 233.44 39.79 232.00 37.00
C 229.80 40.13 224.61 40.46 224.00 45.00
C 217.92 43.76 213.16 41.14 208.00 37.00
C 207.51 36.93 207.00 37.00 207.00 37.00
C 204.79 38.07 202.59 40.41 200.00 41.00
C 198.64 39.62 200.33 38.47 199.00 37.00
C 199.00 37.00 199.05 36.50 199.00 36.00
C 194.24 38.71 191.70 45.51 185.00 43.00
C 184.50 47.60 179.59 48.35 176.00 47.00
C 177.20 45.05 180.74 45.89 182.00 44.00
C 179.74 43.25 176.10 44.31 177.00 40.00
C 175.40 40.27 173.58 39.64 172.00 40.00
M 186.00 51.00 
C 182.61 46.65 181.46 54.96 177.00 54.00
C 177.82 50.85 185.95 44.31 186.00 51.00 Z"/>
</g>
<g fill="None" fill-opacity="0.0" stroke="#D7DDE2" stroke-opacity="1.00" stroke-width="0.3"><path d="
M 206.00 37.00 
C 206.47 36.88 207.00 37.00 207.00 37.00
C 207.00 37.00 207.51 36.93 208.00 37.00
C 209.85 37.25 211.39 38.06 213.00 39.00
C 209.76 36.54 209.71 36.56 206.00 37.00 Z"/>
</g>
<g fill="None" fill-opacity="0.0" stroke="#BEC7CD" stroke-opacity="1.00" stroke-width="0.3"><path d="
M 207.00 37.00 
C 207.00 37.00 206.47 36.88 206.00 37.00
C 203.86 37.55 200.87 38.55 199.00 37.00
C 200.33 38.47 198.64 39.62 200.00 41.00
C 202.59 40.41 204.79 38.07 207.00 37.00 Z"/>
</g>
<g fill="None" fill-opacity="0.0" stroke="#D7DDE2" stroke-opacity="1.00" stroke-width="0.3"><path d="
M 253.00 43.00 
C 250.23 39.54 244.38 40.09 241.00 42.00
C 239.56 38.97 235.89 37.94 233.00 37.00
C 234.60 40.21 239.77 39.01 241.00 43.00
C 244.73 40.64 248.82 41.61 253.00 43.00 Z"/>
</g>
<g fill="None" fill-opacity="0.0" stroke="#BEC7CD" stroke-opacity="1.00" stroke-width="0.3"><path d="
M 139.00 53.00 
C 140.80 51.58 141.36 53.20 141.00 55.00
C 147.05 54.60 152.63 51.69 156.23 47.23 C 159.83 42.78 166.43 43.67 171.00 40.00
C 164.40 41.55 159.70 42.82 155.25 47.25 C 150.79 51.67 144.26 49.24 139.00 53.00 Z"/>
</g>
<g fill="None" fill-opacity="0.0" stroke="#BEC7CD" stroke-opacity="1.00" stroke-width="0.3"><path d="
M 186.00 51.00 
C 185.95 44.31 177.82 50.85 177.00 54.00
C 181.46 54.96 182.61 46.65 186.00 51.00 Z"/>
</g>
<g fill="None" fill-opacity="0.0" stroke="#BEC7CD" stroke-opacity="1.00" stroke-width="0.3"><path d="
M 295.00 61.00 
C 291.79 59.53 288.57 57.24 285.00 56.00
C 282.92 55.28 280.71 54.85 279.00 54.00
C 275.89 52.46 274.22 50.22 270.00 50.00
C 274.57 51.04 276.59 56.05 281.26 56.40 C 285.92 56.75 290.18 60.17 295.00 61.00 Z"/>
</g>
<g fill="None" fill-opacity="0.0" stroke="#D7DDE2" stroke-opacity="1.00" stroke-width="0.3"><path d="
M 279.00 54.00 
C 280.71 54.85 282.92 55.28 285.00 56.00
C 281.67 53.87 282.70 55.02 279.00 54.00 Z"/>
</g>
<g fill="None" fill-opacity="0.0" stroke="#BEC7CD" stroke-opacity="1.00" stroke-width="0.3"><path d="
M 110.00 114.00 
C 110.00 95.87 117.79 66.03 134.00 56.00
C 125.62 59.92 119.12 69.66 116.93 79.93 C 114.73 90.19 105.43 103.26 110.00 114.00 Z"/>
</g>
<g fill="None" fill-opacity="0.0" stroke="#BEC7CD" stroke-opacity="1.00" stroke-width="0.3"><path d="
M 298.00 62.00 
C 306.02 70.54 317.90 81.07 319.00 94.00 C 320.10 106.93 312.40 122.08 302.00 129.00
C 302.91 134.53 302.88 140.88 304.00 146.00
C 304.00 140.05 302.34 130.92 306.75 126.75 C 311.16 122.58 313.94 119.32 316.00 114.00
C 320.07 103.50 321.08 93.77 317.00 83.00
C 313.47 76.81 303.65 63.38 298.00 62.00 Z"/>
</g>
<g fill="None" fill-opacity="0.0" stroke="#D7DDE2" stroke-opacity="1.00" stroke-width="0.3"><path d="
M 316.00 114.00 
C 321.29 103.99 322.97 93.49 317.00 83.00
C 321.08 93.77 320.07 103.50 316.00 114.00 Z"/>
</g>
<g fill="None" fill-opacity="0.0" stroke="#BEC7CD" stroke-opacity="1.00" stroke-width="0.3"><path d="
M 123.00 137.00 
C 125.61 132.38 122.66 129.37 118.00 129.00
C 119.32 126.20 120.17 125.74 116.00 126.00
C 116.52 122.19 115.51 118.77 113.00 116.00
C 111.72 117.40 111.04 118.21 110.00 116.00
C 112.68 121.63 115.31 131.73 123.00 131.00
C 122.30 132.89 123.13 136.02 123.00 137.00 Z"/>
</g>
<g fill="None" fill-opacity="0.0" stroke="#BEC7CD" stroke-opacity="1.00" stroke-width="0.3"><path d="
M 123.00 157.00 
C 123.48 160.88 124.44 164.16 125.00 168.00
C 126.56 173.67 130.05 188.53 126.00 194.00
C 126.00 194.00 126.25 194.74 126.00 195.00
C 124.02 197.06 121.97 192.51 119.00 194.00
C 128.14 199.03 128.31 218.08 126.00 229.00 C 123.69 239.92 127.43 248.52 128.00 261.00
C 128.00 263.00 128.00 265.00 128.00 267.00
C 128.30 270.14 128.30 273.92 128.00 277.00
C 128.00 284.78 128.78 288.64 132.00 295.00
C 130.12 289.90 126.90 283.21 130.00 278.00
C 130.96 284.74 133.78 291.93 135.77 298.23 C 137.76 304.53 139.05 311.84 143.25 316.75 C 147.45 321.67 149.68 327.93 154.75 331.25 C 159.82 334.57 165.03 344.44 166.00 336.00
C 168.76 338.12 168.85 343.73 173.00 338.00
C 171.62 344.83 179.60 344.49 179.00 354.00
C 181.11 354.07 181.82 349.23 183.00 351.00
C 185.06 352.39 185.98 354.29 188.00 356.00
C 194.07 352.33 201.13 355.36 197.00 363.00
C 199.62 359.94 205.99 358.89 207.00 354.00
C 206.16 362.68 216.68 361.80 221.00 358.00
C 219.64 355.73 215.93 359.51 217.00 355.00
C 219.53 356.20 224.76 352.02 227.00 349.00
C 229.15 350.49 231.14 352.52 233.00 354.00
C 235.81 350.02 248.93 348.10 245.00 340.00
C 251.92 342.06 252.64 332.09 257.77 328.77 C 262.89 325.45 268.19 319.81 270.00 314.00
C 276.45 314.53 278.18 307.41 282.70 302.70 C 287.23 298.00 287.61 289.70 287.00 284.00
C 290.99 282.55 290.48 274.76 292.70 269.70 C 294.92 264.65 290.05 254.24 295.00 249.00
C 297.25 256.17 295.39 264.41 296.00 272.00
C 297.37 262.42 295.02 249.32 299.00 240.00
C 299.77 236.94 301.52 232.66 302.00 230.00
C 302.42 223.81 301.32 214.92 302.01 209.01 C 302.69 203.10 307.19 198.28 302.25 193.75 C 297.31 189.22 299.99 181.34 301.00 176.00
C 299.29 176.62 299.64 179.29 298.00 180.00
C 298.66 165.35 290.33 156.45 284.78 143.22 C 279.23 130.00 261.38 127.38 249.22 124.78 C 237.07 122.17 222.55 126.63 212.00 116.00
C 202.83 123.45 188.21 116.44 176.68 118.34 C 165.14 120.23 150.47 120.50 142.26 130.26 C 134.05 140.02 127.06 147.49 125.00 161.00
C 124.15 160.28 123.24 157.92 123.00 157.00
M 210.00 119.00 
C 208.93 123.08 216.79 126.22 222.69 126.65 C 228.60 127.07 233.05 129.13 239.08 132.92 C 245.11 136.70 245.31 141.18 252.00 144.00
C 249.53 148.44 258.47 152.59 258.39 158.75 C 258.32 164.92 258.37 171.63 257.00 179.00
C 262.25 179.01 259.73 187.40 261.00 191.00
C 252.80 196.35 247.24 195.98 237.93 198.93 C 228.62 201.88 231.92 212.79 224.70 218.70 C 217.47 224.60 219.18 235.69 221.13 242.92 C 223.09 250.14 218.57 257.66 223.97 265.03 C 229.37 272.41 218.76 280.10 218.00 287.00
C 213.50 286.11 215.27 289.67 214.00 292.00
C 210.72 290.17 210.63 286.90 207.00 291.00
C 200.41 290.79 194.76 277.20 190.00 284.00
C 192.22 283.87 196.08 284.07 196.00 287.00
C 192.19 289.02 188.54 281.75 184.92 285.92 C 181.30 290.08 178.34 287.76 174.00 291.00
C 174.57 283.93 167.97 295.66 164.00 296.00
C 162.40 304.11 160.08 307.65 163.93 315.07 C 167.77 322.50 173.82 317.03 170.00 310.00
C 177.68 312.81 190.18 316.68 189.00 326.00
C 195.27 323.90 195.07 334.17 201.00 332.00
C 198.71 336.51 202.44 341.40 203.00 346.00
C 197.61 350.43 193.01 348.75 187.00 349.00
C 187.03 343.00 180.69 341.93 178.75 337.25 C 176.82 332.57 175.87 325.68 170.00 328.00
C 168.79 323.69 164.06 320.58 160.75 319.24 C 157.45 317.91 154.78 312.19 149.00 312.00
C 144.52 302.61 136.11 291.35 134.79 280.77 C 133.46 270.19 129.80 258.73 132.21 248.77 C 134.63 238.81 126.06 226.33 134.00 217.00
C 137.93 217.78 138.95 223.49 141.00 227.00
C 143.65 223.35 148.63 227.66 149.00 231.00
C 158.21 234.50 164.74 229.19 154.00 224.00
C 156.10 221.54 158.28 217.57 162.00 218.00
C 160.96 232.78 181.12 233.92 191.00 230.00
C 194.94 235.05 188.12 239.04 191.00 245.00
C 195.04 243.37 191.90 246.23 193.00 248.00
C 195.42 245.62 196.34 243.79 200.00 244.00
C 198.72 239.42 204.03 234.25 201.02 228.98 C 198.02 223.70 194.50 221.55 190.26 217.74 C 186.01 213.94 194.63 207.16 193.00 203.00
C 188.75 199.13 182.63 199.13 181.00 194.00
C 173.63 192.65 169.39 192.93 165.00 188.00
C 161.78 189.29 158.93 187.75 156.00 189.00
C 154.75 185.06 154.20 180.83 150.00 178.00
C 152.09 173.48 153.54 167.95 154.00 162.00
C 157.61 160.12 161.46 155.21 162.92 149.92 C 164.39 144.64 170.83 141.35 168.00 136.00
C 173.58 138.52 177.65 127.16 181.00 124.00
C 184.28 124.81 186.73 123.63 189.00 127.00
C 191.04 122.65 194.21 121.49 198.75 122.40 C 203.29 123.30 207.63 120.89 210.00 119.00
M 289.00 215.00 
C 287.85 211.82 286.13 209.18 285.00 206.00
C 270.48 201.36 254.20 209.32 239.00 208.00
C 237.39 205.51 239.81 204.47 240.00 202.00
C 243.09 203.25 246.70 201.77 250.00 204.00
C 246.39 200.43 251.09 196.37 255.00 199.00
C 256.85 191.94 266.47 194.52 272.00 195.00
C 272.30 190.91 266.19 194.78 265.00 192.00
C 273.44 186.80 277.93 191.09 283.25 196.75 C 288.58 202.40 296.20 209.13 289.00 215.00
M 175.00 196.00 
C 175.91 203.57 185.62 199.39 186.00 207.00
C 177.88 206.91 170.20 204.12 162.00 202.00
C 162.93 195.27 154.03 194.99 151.00 192.00
C 159.84 188.19 167.05 197.18 175.00 196.00
M 299.00 199.00 
C 294.80 199.11 298.82 197.25 295.00 195.00
C 297.54 194.28 299.64 196.49 299.00 199.00
M 158.00 198.00 
C 156.63 200.24 153.89 199.69 151.00 200.00
C 149.81 195.09 156.11 195.60 158.00 198.00
M 139.00 197.00 
C 137.98 198.67 137.42 201.70 135.00 202.00
C 136.03 199.83 136.18 197.55 139.00 197.00
M 171.00 208.00 
C 159.31 209.39 145.50 208.62 141.00 220.00
C 139.23 217.02 139.87 217.32 138.00 220.00
C 136.46 214.24 137.95 211.03 139.00 206.00
C 143.56 206.35 147.38 205.79 146.00 202.00
C 156.45 200.97 163.40 200.36 171.00 208.00
M 170.00 222.00 
C 165.13 224.98 168.86 215.89 170.00 221.00
C 172.56 217.78 165.88 216.91 165.00 220.00
C 164.35 217.29 161.29 217.59 160.00 216.00
C 165.65 215.59 173.37 215.25 179.00 218.00
C 177.66 221.88 170.92 220.71 172.00 226.00
C 169.47 226.63 170.10 223.47 170.00 222.00
M 274.00 217.00 
C 274.51 219.99 277.96 220.28 279.00 223.00
C 276.91 224.32 275.40 226.29 273.00 227.00
C 273.30 221.48 267.84 220.14 262.00 219.00
C 262.58 222.90 261.83 226.36 259.00 229.00
C 255.90 225.48 256.90 229.70 254.00 230.00
C 253.19 225.05 248.03 223.20 246.00 219.00
C 254.82 212.51 264.83 218.20 274.00 217.00
M 158.00 219.00 
C 155.37 220.70 150.57 221.49 150.00 225.00
C 140.17 222.24 154.39 215.40 158.00 219.00
M 189.00 230.00 
C 184.40 229.69 180.18 228.72 175.00 229.00
C 177.01 226.41 178.19 223.38 178.00 220.00
C 183.04 221.99 186.38 226.18 189.00 230.00
M 259.00 231.00 
C 260.16 227.21 264.75 224.90 263.00 220.00
C 272.61 219.73 265.22 231.63 259.00 231.00
M 247.00 221.00 
C 244.70 227.94 255.62 229.81 254.00 235.00
C 260.76 238.03 268.07 237.97 275.00 237.00
C 274.92 241.26 276.39 237.40 279.00 240.00
C 281.18 254.61 272.78 272.73 271.00 284.00
C 263.35 288.36 256.40 282.13 251.00 285.00
C 247.70 275.90 242.47 267.68 237.75 259.25 C 233.02 250.82 234.59 240.93 232.00 231.00
C 238.36 232.78 245.74 230.87 252.00 233.00
C 250.08 227.93 237.37 233.45 238.00 225.00
C 242.02 225.44 243.37 220.52 247.00 221.00
M 223.00 302.00 
C 225.42 304.85 218.63 305.91 215.78 306.78 C 212.93 307.64 206.12 305.34 203.00 305.00
C 208.15 301.59 217.67 307.02 222.00 302.00
C 214.39 306.34 212.71 298.59 217.77 294.77 C 222.83 290.95 228.13 292.72 232.00 288.00
C 241.43 290.93 247.09 288.14 256.69 292.31 C 266.30 296.47 263.80 311.95 260.00 320.00
C 257.89 317.07 256.58 312.30 258.00 308.00
C 254.60 303.52 248.94 305.72 245.75 302.24 C 242.56 298.77 236.40 303.27 235.00 299.00
C 232.45 302.24 226.94 300.93 223.00 302.00
M 201.00 291.00 
C 198.78 297.50 206.81 294.09 211.00 294.00
C 215.54 305.86 198.25 303.91 197.00 298.00
C 194.72 300.88 192.40 299.73 189.00 302.00
C 181.88 292.94 195.20 288.75 201.00 291.00
M 181.00 297.00 
C 174.28 300.10 175.21 293.26 181.00 297.00
M 175.00 301.00 
C 169.48 303.14 167.92 308.85 166.00 314.00
C 164.58 308.53 166.89 297.45 175.00 301.00
M 247.00 309.00 
C 246.23 311.64 243.88 313.33 241.00 313.00
C 241.11 310.51 244.84 307.62 247.00 309.00
M 207.00 329.00 
C 211.25 328.45 213.68 328.45 218.00 329.00
C 214.33 335.07 207.62 329.86 202.00 331.00
C 201.52 328.34 205.53 327.68 205.00 325.00
C 202.22 324.26 202.77 323.17 202.00 321.00
C 205.31 321.81 208.50 317.90 209.77 323.23 C 211.04 328.56 208.35 325.31 207.00 329.00
M 217.00 320.00 
C 216.60 322.30 216.54 325.37 215.00 327.00
C 214.81 321.17 214.40 328.43 211.00 327.00
C 210.70 323.06 213.62 319.97 217.00 320.00
M 218.00 339.00 
C 221.18 342.07 219.14 345.27 215.00 344.00
C 215.99 342.27 216.92 341.62 218.00 339.00
M 213.00 347.00 
C 211.38 344.81 210.95 342.97 213.00 341.00
C 213.61 342.26 214.59 345.65 213.00 347.00 Z"/>
</g>
<g fill="None" fill-opacity="0.0" stroke="#D7DDE2" stroke-opacity="1.00" stroke-width="0.3"><path d="
M 210.00 119.00 
C 207.63 120.89 203.29 123.30 198.75 122.40 C 194.21 121.49 191.04 122.65 189.00 127.00
C 186.73 123.63 184.28 124.81 181.00 124.00
C 177.65 127.16 173.58 138.52 168.00 136.00
C 170.83 141.35 164.39 144.64 162.92 149.92 C 161.46 155.21 157.61 160.12 154.00 162.00
C 153.54 167.95 152.09 173.48 150.00 178.00
C 154.20 180.83 154.75 185.06 156.00 189.00
C 158.93 187.75 161.78 189.29 165.00 188.00
C 169.39 192.93 173.63 192.65 181.00 194.00
C 182.63 199.13 188.75 199.13 193.00 203.00
C 194.63 207.16 186.01 213.94 190.26 217.74 C 194.50 221.55 198.02 223.70 201.02 228.98 C 204.03 234.25 198.72 239.42 200.00 244.00
C 196.34 243.79 195.42 245.62 193.00 248.00
C 191.90 246.23 195.04 243.37 191.00 245.00
C 188.12 239.04 194.94 235.05 191.00 230.00
C 181.12 233.92 160.96 232.78 162.00 218.00
C 158.28 217.57 156.10 221.54 154.00 224.00
C 164.74 229.19 158.21 234.50 149.00 231.00
C 148.63 227.66 143.65 223.35 141.00 227.00
C 138.95 223.49 137.93 217.78 134.00 217.00
C 126.06 226.33 134.63 238.81 132.21 248.77 C 129.80 258.73 133.46 270.19 134.79 280.77 C 136.11 291.35 144.52 302.61 149.00 312.00
C 154.78 312.19 157.45 317.91 160.75 319.24 C 164.06 320.58 168.79 323.69 170.00 328.00
C 175.87 325.68 176.82 332.57 178.75 337.25 C 180.69 341.93 187.03 343.00 187.00 349.00
C 193.01 348.75 197.61 350.43 203.00 346.00
C 202.44 341.40 198.71 336.51 201.00 332.00
C 195.07 334.17 195.27 323.90 189.00 326.00
C 190.18 316.68 177.68 312.81 170.00 310.00
C 173.82 317.03 167.77 322.50 163.93 315.07 C 160.08 307.65 162.40 304.11 164.00 296.00
C 167.97 295.66 174.57 283.93 174.00 291.00
C 178.34 287.76 181.30 290.08 184.92 285.92 C 188.54 281.75 192.19 289.02 196.00 287.00
C 196.08 284.07 192.22 283.87 190.00 284.00
C 194.76 277.20 200.41 290.79 207.00 291.00
C 210.63 286.90 210.72 290.17 214.00 292.00
C 215.27 289.67 213.50 286.11 218.00 287.00
C 218.76 280.10 229.37 272.41 223.97 265.03 C 218.57 257.66 223.09 250.14 221.13 242.92 C 219.18 235.69 217.47 224.60 224.70 218.70 C 231.92 212.79 228.62 201.88 237.93 198.93 C 247.24 195.98 252.80 196.35 261.00 191.00
C 259.73 187.40 262.25 179.01 257.00 179.00
C 258.37 171.63 258.32 164.92 258.39 158.75 C 258.47 152.59 249.53 148.44 252.00 144.00
C 245.31 141.18 245.11 136.70 239.08 132.92 C 233.05 129.13 228.60 127.07 222.69 126.65 C 216.79 126.22 208.93 123.08 210.00 119.00 Z"/>
</g>
<g fill="None" fill-opacity="0.0" stroke="#BEC7CD" stroke-opacity="1.00" stroke-width="0.3"><path d="
M 122.00 151.00 
C 121.62 147.59 121.29 142.34 122.00 139.00
C 120.06 142.51 121.19 147.45 122.00 151.00 Z"/>
</g>
<g fill="None" fill-opacity="0.0" stroke="#BEC7CD" stroke-opacity="1.00" stroke-width="0.3"><path d="
M 302.00 167.00 
C 302.51 161.68 304.15 154.90 304.00 149.00
C 302.98 154.67 302.00 160.47 302.00 167.00 Z"/>
</g>
<g fill="None" fill-opacity="0.0" stroke="#D7DDE2" stroke-opacity="1.00" stroke-width="0.3"><path d="
M 126.00 194.00 
C 130.05 188.53 126.56 173.67 125.00 168.00
C 126.23 176.45 126.00 185.22 126.00 194.00 Z"/>
</g>
<g fill="None" fill-opacity="0.0" stroke="#010403" stroke-opacity="1.00" stroke-width="0.3"><path d="
M 289.00 215.00 
C 296.20 209.13 288.58 202.40 283.25 196.75 C 277.93 191.09 273.44 186.80 265.00 192.00
C 266.19 194.78 272.30 190.91 272.00 195.00
C 266.47 194.52 256.85 191.94 255.00 199.00
C 251.09 196.37 246.39 200.43 250.00 204.00
C 246.70 201.77 243.09 203.25 240.00 202.00
C 239.81 204.47 237.39 205.51 239.00 208.00
C 254.20 209.32 270.48 201.36 285.00 206.00
C 286.13 209.18 287.85 211.82 289.00 215.00 Z"/>
</g>
<g fill="None" fill-opacity="0.0" stroke="#010403" stroke-opacity="1.00" stroke-width="0.3"><path d="
M 175.00 196.00 
C 167.05 197.18 159.84 188.19 151.00 192.00
C 154.03 194.99 162.93 195.27 162.00 202.00
C 170.20 204.12 177.88 206.91 186.00 207.00
C 185.62 199.39 175.91 203.57 175.00 196.00 Z"/>
</g>
<g fill="None" fill-opacity="0.0" stroke="#D7DDE2" stroke-opacity="1.00" stroke-width="0.3"><path d="
M 128.00 261.00 
C 127.43 248.52 123.69 239.92 126.00 229.00 C 128.31 218.08 128.14 199.03 119.00 194.00
C 121.97 192.51 124.02 197.06 126.00 195.00
C 109.09 189.61 120.80 213.09 120.00 224.00 C 119.20 234.91 126.97 250.39 128.00 261.00 Z"/>
</g>
<g fill="None" fill-opacity="0.0" stroke="#010403" stroke-opacity="1.00" stroke-width="0.3"><path d="
M 299.00 199.00 
C 299.64 196.49 297.54 194.28 295.00 195.00
C 298.82 197.25 294.80 199.11 299.00 199.00 Z"/>
</g>
<g fill="None" fill-opacity="0.0" stroke="#010403" stroke-opacity="1.00" stroke-width="0.3"><path d="
M 158.00 198.00 
C 156.11 195.60 149.81 195.09 151.00 200.00
C 153.89 199.69 156.63 200.24 158.00 198.00 Z"/>
</g>
<g fill="None" fill-opacity="0.0" stroke="#010403" stroke-opacity="1.00" stroke-width="0.3"><path d="
M 139.00 197.00 
C 136.18 197.55 136.03 199.83 135.00 202.00
C 137.42 201.70 137.98 198.67 139.00 197.00 Z"/>
</g>
<g fill="None" fill-opacity="0.0" stroke="#D7DDE2" stroke-opacity="1.00" stroke-width="0.3"><path d="
M 171.00 208.00 
C 163.40 200.36 156.45 200.97 146.00 202.00
C 147.38 205.79 143.56 206.35 139.00 206.00
C 137.95 211.03 136.46 214.24 138.00 220.00
C 139.87 217.32 139.23 217.02 141.00 220.00
C 145.50 208.62 159.31 209.39 171.00 208.00 Z"/>
</g>
<g fill="None" fill-opacity="0.0" stroke="#010403" stroke-opacity="1.00" stroke-width="0.3"><path d="
M 170.00 221.00 
C 169.76 221.31 170.00 222.00 170.00 222.00
C 170.10 223.47 169.47 226.63 172.00 226.00
C 170.92 220.71 177.66 221.88 179.00 218.00
C 173.37 215.25 165.65 215.59 160.00 216.00
C 161.29 217.59 164.35 217.29 165.00 220.00
C 165.88 216.91 172.56 217.78 170.00 221.00 Z"/>
</g>
<g fill="None" fill-opacity="0.0" stroke="#010403" stroke-opacity="1.00" stroke-width="0.3"><path d="
M 274.00 217.00 
C 264.83 218.20 254.82 212.51 246.00 219.00
C 248.03 223.20 253.19 225.05 254.00 230.00
C 256.90 229.70 255.90 225.48 259.00 229.00
C 261.83 226.36 262.58 222.90 262.00 219.00
C 267.84 220.14 273.30 221.48 273.00 227.00
C 275.40 226.29 276.91 224.32 279.00 223.00
C 277.96 220.28 274.51 219.99 274.00 217.00
M 252.00 224.00 
C 250.56 215.27 260.20 222.79 252.00 224.00 Z"/>
</g>
<g fill="None" fill-opacity="0.0" stroke="#010403" stroke-opacity="1.00" stroke-width="0.3"><path d="
M 158.00 219.00 
C 154.39 215.40 140.17 222.24 150.00 225.00
C 150.57 221.49 155.37 220.70 158.00 219.00 Z"/>
</g>
<g fill="None" fill-opacity="0.0" stroke="#E1E9ED" stroke-opacity="1.00" stroke-width="0.3"><path d="
M 170.00 222.00 
C 170.00 222.00 169.76 221.31 170.00 221.00
C 168.86 215.89 165.13 224.98 170.00 222.00 Z"/>
</g>
<g fill="None" fill-opacity="0.0" stroke="#BEC7CD" stroke-opacity="1.00" stroke-width="0.3"><path d="
M 252.00 224.00 
C 260.20 222.79 250.56 215.27 252.00 224.00 Z"/>
</g>
<g fill="None" fill-opacity="0.0" stroke="#D7DDE2" stroke-opacity="1.00" stroke-width="0.3"><path d="
M 189.00 230.00 
C 186.38 226.18 183.04 221.99 178.00 220.00
C 178.19 223.38 177.01 226.41 175.00 229.00
C 180.18 228.72 184.40 229.69 189.00 230.00 Z"/>
</g>
<g fill="None" fill-opacity="0.0" stroke="#D7DDE2" stroke-opacity="1.00" stroke-width="0.3"><path d="
M 259.00 231.00 
C 265.22 231.63 272.61 219.73 263.00 220.00
C 264.75 224.90 260.16 227.21 259.00 231.00 Z"/>
</g>
<g fill="None" fill-opacity="0.0" stroke="#D7DDE2" stroke-opacity="1.00" stroke-width="0.3"><path d="
M 247.00 221.00 
C 243.37 220.52 242.02 225.44 238.00 225.00
C 237.37 233.45 250.08 227.93 252.00 233.00
C 245.74 230.87 238.36 232.78 232.00 231.00
C 234.59 240.93 233.02 250.82 237.75 259.25 C 242.47 267.68 247.70 275.90 251.00 285.00
C 256.40 282.13 263.35 288.36 271.00 284.00
C 272.78 272.73 281.18 254.61 279.00 240.00
C 276.39 237.40 274.92 241.26 275.00 237.00
C 268.07 237.97 260.76 238.03 254.00 235.00
C 255.62 229.81 244.70 227.94 247.00 221.00 Z"/>
</g>
<g fill="None" fill-opacity="0.0" stroke="#D7DDE2" stroke-opacity="1.00" stroke-width="0.3"><path d="
M 299.00 240.00 
C 300.41 236.69 301.72 234.06 302.00 230.00
C 301.52 232.66 299.77 236.94 299.00 240.00 Z"/>
</g>
<g fill="None" fill-opacity="0.0" stroke="#010403" stroke-opacity="1.00" stroke-width="0.3"><path d="
M 132.00 295.00 
C 134.05 300.56 134.89 306.55 137.00 312.00
C 138.99 316.02 142.63 321.01 145.00 325.00
C 146.73 327.09 147.94 327.86 148.00 331.00
C 158.38 335.34 155.93 345.66 153.01 355.01 C 150.09 364.36 154.05 379.30 153.00 389.00
C 152.95 389.49 153.00 390.00 153.00 390.00
C 161.05 399.38 162.33 414.19 172.75 423.25 C 183.17 432.31 189.23 441.90 201.23 448.77 C 213.23 455.65 230.30 457.92 242.69 450.69 C 255.09 443.47 263.55 436.95 270.30 424.30 C 277.06 411.66 281.92 397.49 283.00 383.00
C 282.02 386.75 278.62 388.21 275.00 389.00
C 280.06 397.32 266.45 403.54 269.00 413.00 C 271.56 422.46 262.42 427.93 254.92 433.92 C 247.42 439.91 240.49 442.89 233.75 442.19 C 227.00 441.49 217.55 442.85 212.23 437.42 C 206.91 432.00 196.64 433.08 189.97 427.03 C 183.30 420.98 176.27 415.18 169.92 408.08 C 163.56 400.98 161.81 389.96 158.00 381.00 C 154.20 372.04 153.48 356.66 157.00 347.00
C 165.62 349.46 167.28 359.09 173.75 364.25 C 180.23 369.41 178.87 382.13 189.00 383.00
C 188.48 380.17 183.38 379.13 185.00 375.00
C 192.49 385.26 209.54 399.05 224.00 393.00 C 238.46 386.96 245.97 373.20 254.00 361.00
C 263.65 360.80 262.58 346.44 273.00 348.00
C 276.26 355.81 272.24 364.54 276.00 374.00
C 276.42 369.80 277.49 356.71 284.00 361.00
C 286.90 347.87 278.16 336.50 279.00 325.00
C 282.34 316.49 288.43 310.88 290.67 301.67 C 292.92 292.46 295.63 281.82 296.00 272.00
C 295.39 264.41 297.25 256.17 295.00 249.00
C 290.05 254.24 294.92 264.65 292.70 269.70 C 290.48 274.76 290.99 282.55 287.00 284.00
C 287.61 289.70 287.23 298.00 282.70 302.70 C 278.18 307.41 276.45 314.53 270.00 314.00
C 268.19 319.81 262.89 325.45 257.77 328.77 C 252.64 332.09 251.92 342.06 245.00 340.00
C 248.93 348.10 235.81 350.02 233.00 354.00
C 231.14 352.52 229.15 350.49 227.00 349.00
C 224.76 352.02 219.53 356.20 217.00 355.00
C 215.93 359.51 219.64 355.73 221.00 358.00
C 216.68 361.80 206.16 362.68 207.00 354.00
C 205.99 358.89 199.62 359.94 197.00 363.00
C 201.13 355.36 194.07 352.33 188.00 356.00
C 185.98 354.29 185.06 352.39 183.00 351.00
C 181.82 349.23 181.11 354.07 179.00 354.00
C 179.60 344.49 171.62 344.83 173.00 338.00
C 168.85 343.73 168.76 338.12 166.00 336.00
C 165.03 344.44 159.82 334.57 154.75 331.25 C 149.68 327.93 147.45 321.67 143.25 316.75 C 139.05 311.84 137.76 304.53 135.77 298.23 C 133.78 291.93 130.96 284.74 130.00 278.00
C 126.90 283.21 130.12 289.90 132.00 295.00 Z"/>
</g>
<g fill="None" fill-opacity="0.0" stroke="#D7DDE2" stroke-opacity="1.00" stroke-width="0.3"><path d="
M 128.00 277.00 
C 128.30 273.92 128.30 270.14 128.00 267.00
C 128.00 270.33 128.00 273.67 128.00 277.00 Z"/>
</g>
<g fill="None" fill-opacity="0.0" stroke="#010403" stroke-opacity="1.00" stroke-width="0.3"><path d="
M 222.00 302.00 
C 222.38 301.78 223.00 302.00 223.00 302.00
C 226.94 300.93 232.45 302.24 235.00 299.00
C 236.40 303.27 242.56 298.77 245.75 302.24 C 248.94 305.72 254.60 303.52 258.00 308.00
C 256.58 312.30 257.89 317.07 260.00 320.00
C 263.80 311.95 266.30 296.47 256.69 292.31 C 247.09 288.14 241.43 290.93 232.00 288.00
C 228.13 292.72 222.83 290.95 217.77 294.77 C 212.71 298.59 214.39 306.34 222.00 302.00 Z"/>
</g>
<g fill="None" fill-opacity="0.0" stroke="#010403" stroke-opacity="1.00" stroke-width="0.3"><path d="
M 201.00 291.00 
C 195.20 288.75 181.88 292.94 189.00 302.00
C 192.40 299.73 194.72 300.88 197.00 298.00
C 198.25 303.91 215.54 305.86 211.00 294.00
C 206.81 294.09 198.78 297.50 201.00 291.00 Z"/>
</g>
<g fill="None" fill-opacity="0.0" stroke="#010403" stroke-opacity="1.00" stroke-width="0.3"><path d="
M 181.00 297.00 
C 175.21 293.26 174.28 300.10 181.00 297.00 Z"/>
</g>
<g fill="None" fill-opacity="0.0" stroke="#010403" stroke-opacity="1.00" stroke-width="0.3"><path d="
M 175.00 301.00 
C 166.89 297.45 164.58 308.53 166.00 314.00
C 167.92 308.85 169.48 303.14 175.00 301.00 Z"/>
</g>
<g fill="None" fill-opacity="0.0" stroke="#D7DDE2" stroke-opacity="1.00" stroke-width="0.3"><path d="
M 223.00 302.00 
C 223.00 302.00 222.38 301.78 222.00 302.00
C 217.67 307.02 208.15 301.59 203.00 305.00
C 206.12 305.34 212.93 307.64 215.78 306.78 C 218.63 305.91 225.42 304.85 223.00 302.00 Z"/>
</g>
<g fill="None" fill-opacity="0.0" stroke="#010403" stroke-opacity="1.00" stroke-width="0.3"><path d="
M 247.00 309.00 
C 244.84 307.62 241.11 310.51 241.00 313.00
C 243.88 313.33 246.23 311.64 247.00 309.00 Z"/>
</g>
<g fill="None" fill-opacity="0.0" stroke="#BEC7CD" stroke-opacity="1.00" stroke-width="0.3"><path d="
M 145.00 325.00 
C 142.63 321.01 138.99 316.02 137.00 312.00
C 138.88 316.85 141.77 321.11 145.00 325.00 Z"/>
</g>
<g fill="None" fill-opacity="0.0" stroke="#D7DDE2" stroke-opacity="1.00" stroke-width="0.3"><path d="
M 207.00 329.00 
C 208.35 325.31 211.04 328.56 209.77 323.23 C 208.50 317.90 205.31 321.81 202.00 321.00
C 202.77 323.17 202.22 324.26 205.00 325.00
C 205.53 327.68 201.52 328.34 202.00 331.00
C 207.62 329.86 214.33 335.07 218.00 329.00
C 213.68 328.45 211.25 328.45 207.00 329.00 Z"/>
</g>
<g fill="None" fill-opacity="0.0" stroke="#D7DDE2" stroke-opacity="1.00" stroke-width="0.3"><path d="
M 217.00 320.00 
C 213.62 319.97 210.70 323.06 211.00 327.00
C 214.40 328.43 214.81 321.17 215.00 327.00
C 216.54 325.37 216.60 322.30 217.00 320.00 Z"/>
</g>
<g fill="None" fill-opacity="0.0" stroke="#BEC7CD" stroke-opacity="1.00" stroke-width="0.3"><path d="
M 153.00 390.00 
C 154.22 397.45 158.40 403.85 161.30 410.70 C 164.21 417.54 169.88 421.65 174.30 427.70 C 178.73 433.75 184.09 436.06 189.25 441.75 C 194.41 447.44 200.75 449.68 207.68 453.32 C 214.60 456.97 222.77 457.21 230.22 456.22 C 237.67 455.24 246.81 449.33 250.00 452.00
C 250.59 442.54 263.96 446.53 265.00 439.00
C 272.97 444.18 272.97 432.55 277.09 429.08 C 281.20 425.62 285.66 417.07 285.00 411.00
C 286.41 412.39 286.41 418.67 287.00 413.00
C 293.93 413.14 298.30 411.41 304.00 409.00
C 298.19 413.35 307.92 410.49 306.00 417.00
C 302.61 418.34 302.72 413.78 300.00 414.00
C 298.85 416.22 300.03 417.95 299.00 420.00
C 302.52 417.94 306.68 417.66 311.00 418.00
C 310.00 420.50 306.99 418.88 306.00 420.00
C 308.61 423.16 308.59 426.03 307.00 430.00
C 308.92 425.71 310.66 429.01 314.00 430.00
C 313.51 432.67 313.54 434.27 314.00 437.00
C 310.33 436.77 307.65 440.83 308.00 444.00
C 314.73 440.18 321.45 448.21 329.00 446.00
C 326.81 449.86 322.13 446.24 319.00 448.00
C 322.42 452.08 328.34 447.67 333.00 450.00
C 331.32 451.89 328.77 449.33 327.00 452.00
C 331.35 452.88 329.69 455.75 331.00 459.00
C 332.51 456.21 335.63 456.96 338.00 456.00
C 337.18 460.85 329.42 458.99 328.00 464.00
C 331.02 466.26 327.50 469.49 329.00 474.00
C 326.21 472.15 323.65 469.37 319.00 471.00
C 321.28 478.22 327.92 476.02 333.00 476.00
C 330.65 473.42 331.86 471.37 336.00 472.00
C 332.16 477.80 335.59 488.10 330.00 491.00
C 331.73 493.46 332.29 495.22 329.00 497.00
C 332.47 497.79 332.90 500.24 335.00 501.00
C 331.87 496.67 339.56 494.12 335.00 491.00
C 336.73 489.11 338.49 486.25 341.00 485.00
C 336.96 483.37 339.80 476.87 344.00 478.00
C 342.18 475.83 344.29 473.25 345.00 471.00
C 348.00 475.36 352.82 467.14 348.00 467.00
C 352.43 463.50 358.65 465.80 364.00 466.00
C 356.63 467.58 363.37 468.81 360.00 472.00
C 363.95 472.42 367.29 470.65 371.00 470.00
C 371.10 472.78 371.49 475.56 369.00 477.00
C 374.83 484.90 368.53 505.66 364.00 513.00
C 363.89 515.81 367.78 516.17 370.00 516.00
C 366.02 511.77 372.59 509.82 376.00 509.00
C 372.66 507.50 370.21 502.46 376.00 505.00
C 371.62 501.70 374.14 498.96 378.00 497.00
C 368.69 491.00 390.91 487.91 389.00 482.00
C 392.10 482.60 397.72 480.63 397.00 485.00
C 399.45 484.20 399.90 480.51 404.00 482.00
C 404.52 485.29 397.78 483.08 402.00 486.00
C 397.28 487.48 387.53 486.79 389.00 494.00
C 384.02 493.05 379.20 494.33 379.00 500.00
C 381.54 498.47 381.93 496.34 386.00 498.00
C 384.76 494.37 395.58 491.69 396.00 496.00
C 395.75 489.49 397.96 493.66 402.00 491.00
C 399.07 495.39 407.39 493.12 410.00 495.00
C 405.56 498.36 411.81 499.09 411.00 503.00
C 408.55 500.46 405.02 501.15 402.00 500.00
C 399.52 503.36 405.49 506.71 407.00 503.00
C 405.87 506.72 411.24 507.63 411.00 511.00
C 406.47 509.79 398.19 502.56 393.00 508.00
C 395.63 509.19 399.10 510.82 400.00 514.00
C 394.83 513.84 390.65 514.11 386.00 513.00
C 388.75 516.91 394.90 516.38 399.00 515.00
C 398.49 521.33 398.12 526.16 400.00 532.00
C 395.64 529.76 393.54 533.98 397.00 537.00
C 391.42 535.23 392.92 538.07 394.00 542.00
C 390.30 543.60 389.73 545.74 388.00 549.00
C 394.25 547.20 386.61 557.33 387.79 559.57 C 388.96 561.81 390.24 569.98 390.00 575.00
C 388.51 574.72 386.62 575.02 387.00 577.00
L 399.00 577.00
C 399.00 575.33 399.00 573.67 399.00 572.00
C 402.18 572.01 405.34 574.36 407.00 577.00
L 433.00 577.00
L 433.00 545.00
C 422.22 545.51 413.29 552.54 403.00 555.00
C 404.20 546.32 412.59 542.51 419.00 538.00
C 418.35 542.24 412.72 544.41 413.00 549.00
C 420.54 548.43 425.40 541.31 433.00 541.00
L 433.00 521.00
C 426.48 526.22 419.83 531.57 412.00 534.00
C 418.35 528.10 426.54 524.16 433.00 518.00
L 433.00 512.00
C 427.65 517.08 421.54 523.23 414.00 525.00
C 420.43 520.89 427.05 515.53 433.00 510.00
L 433.00 393.00
C 419.56 385.00 404.87 378.96 390.00 374.00
C 386.39 372.80 383.22 370.49 380.00 369.00
C 344.99 360.23 313.20 342.65 279.00 331.00
C 279.38 329.38 278.80 325.67 279.00 325.00
C 278.16 336.50 286.90 347.87 284.00 361.00
C 277.49 356.71 276.42 369.80 276.00 374.00
C 272.24 364.54 276.26 355.81 273.00 348.00
C 262.58 346.44 263.65 360.80 254.00 361.00
C 245.97 373.20 238.46 386.96 224.00 393.00 C 209.54 399.05 192.49 385.26 185.00 375.00
C 183.38 379.13 188.48 380.17 189.00 383.00
C 178.87 382.13 180.23 369.41 173.75 364.25 C 167.28 359.09 165.62 349.46 157.00 347.00
C 153.48 356.66 154.20 372.04 158.00 381.00 C 161.81 389.96 163.56 400.98 169.92 408.08 C 176.27 415.18 183.30 420.98 189.97 427.03 C 196.64 433.08 206.91 432.00 212.23 437.42 C 217.55 442.85 227.00 441.49 233.75 442.19 C 240.49 442.89 247.42 439.91 254.92 433.92 C 262.42 427.93 271.56 422.46 269.00 413.00 C 266.45 403.54 280.06 397.32 275.00 389.00
C 278.62 388.21 282.02 386.75 283.00 383.00
C 281.92 397.49 277.06 411.66 270.30 424.30 C 263.55 436.95 255.09 443.47 242.69 450.69 C 230.30 457.92 213.23 455.65 201.23 448.77 C 189.23 441.90 183.17 432.31 172.75 423.25 C 162.33 414.19 161.05 399.38 153.00 390.00
M 276.00 375.00 
C 275.14 378.96 275.67 382.06 275.00 386.00
C 271.81 384.04 273.48 377.06 276.00 375.00
M 228.00 399.00 
C 228.76 395.01 233.27 396.05 234.00 393.00
C 236.09 394.08 236.41 396.54 239.00 397.00
C 236.19 402.58 241.68 407.77 237.00 411.00
C 244.52 415.57 235.38 413.44 240.92 421.08 C 246.45 428.73 228.63 434.64 222.00 430.00
C 224.17 420.04 216.79 425.72 210.99 423.01 C 205.19 420.30 198.58 420.69 193.25 418.74 C 187.93 416.79 190.00 403.30 187.22 398.78 C 184.44 394.25 181.56 383.83 191.75 390.25 C 201.94 396.67 216.23 400.52 228.00 399.00
M 405.00 565.00 
C 405.41 568.16 401.78 567.77 400.00 569.00
C 398.76 565.22 401.98 564.46 405.00 565.00 Z"/>
</g>
<g fill="None" fill-opacity="0.0" stroke="#BEC7CD" stroke-opacity="1.00" stroke-width="0.3"><path d="
M 148.00 332.00 
C 148.53 333.28 149.49 334.43 148.00 336.00
C 150.16 337.47 151.27 339.50 154.00 338.00
C 151.91 354.34 147.13 372.67 153.00 389.00
C 154.05 379.30 150.09 364.36 153.01 355.01 C 155.93 345.66 158.38 335.34 148.00 331.00
C 148.00 331.00 147.82 331.57 148.00 332.00 Z"/>
</g>
<g fill="None" fill-opacity="0.0" stroke="#D7DDE2" stroke-opacity="1.00" stroke-width="0.3"><path d="
M 0.00 403.00 
L 0.00 486.00
C 9.08 501.73 26.90 508.83 39.00 521.00
C 24.69 514.00 8.97 504.60 0.00 492.00
L 0.00 577.00
L 14.00 577.00
C 14.92 574.01 23.55 574.01 26.00 577.00
L 40.00 577.00
C 36.98 568.02 27.68 562.22 25.00 553.00
C 32.90 556.64 41.24 564.07 47.00 571.00
C 61.66 574.18 52.94 555.65 44.00 556.00
C 44.48 547.21 52.22 555.44 57.00 552.00
C 62.83 559.03 57.81 569.56 63.00 577.00
L 212.00 577.00
C 213.09 575.99 214.59 574.78 216.00 574.00
C 210.16 558.04 207.27 539.71 201.23 521.77 C 195.19 503.84 184.70 489.87 177.00 473.00
C 190.31 484.04 200.24 500.04 206.97 516.03 C 213.71 532.01 213.65 553.40 225.00 567.00
C 223.15 568.51 222.77 571.26 226.00 571.00
C 226.59 573.27 225.15 574.90 225.00 577.00
L 387.00 577.00
C 386.62 575.02 388.51 574.72 390.00 575.00
C 390.24 569.98 388.96 561.81 387.79 559.57 C 386.61 557.33 394.25 547.20 388.00 549.00
C 389.73 545.74 390.30 543.60 394.00 542.00
C 392.92 538.07 391.42 535.23 397.00 537.00
C 393.54 533.98 395.64 529.76 400.00 532.00
C 398.12 526.16 398.49 521.33 399.00 515.00
C 394.90 516.38 388.75 516.91 386.00 513.00
C 390.65 514.11 394.83 513.84 400.00 514.00
C 399.10 510.82 395.63 509.19 393.00 508.00
C 398.19 502.56 406.47 509.79 411.00 511.00
C 411.24 507.63 405.87 506.72 407.00 503.00
C 405.49 506.71 399.52 503.36 402.00 500.00
C 405.02 501.15 408.55 500.46 411.00 503.00
C 411.81 499.09 405.56 498.36 410.00 495.00
C 407.39 493.12 399.07 495.39 402.00 491.00
C 397.96 493.66 395.75 489.49 396.00 496.00
C 395.58 491.69 384.76 494.37 386.00 498.00
C 381.93 496.34 381.54 498.47 379.00 500.00
C 379.20 494.33 384.02 493.05 389.00 494.00
C 387.53 486.79 397.28 487.48 402.00 486.00
C 397.78 483.08 404.52 485.29 404.00 482.00
C 399.90 480.51 399.45 484.20 397.00 485.00
C 397.72 480.63 392.10 482.60 389.00 482.00
C 390.91 487.91 368.69 491.00 378.00 497.00
C 374.14 498.96 371.62 501.70 376.00 505.00
C 370.21 502.46 372.66 507.50 376.00 509.00
C 372.59 509.82 366.02 511.77 370.00 516.00
C 367.78 516.17 363.89 515.81 364.00 513.00
C 368.53 505.66 374.83 484.90 369.00 477.00
C 371.49 475.56 371.10 472.78 371.00 470.00
C 367.29 470.65 363.95 472.42 360.00 472.00
C 363.37 468.81 356.63 467.58 364.00 466.00
C 358.65 465.80 352.43 463.50 348.00 467.00
C 352.82 467.14 348.00 475.36 345.00 471.00
C 344.29 473.25 342.18 475.83 344.00 478.00
C 339.80 476.87 336.96 483.37 341.00 485.00
C 338.49 486.25 336.73 489.11 335.00 491.00
C 339.56 494.12 331.87 496.67 335.00 501.00
C 332.90 500.24 332.47 497.79 329.00 497.00
C 332.29 495.22 331.73 493.46 330.00 491.00
C 335.59 488.10 332.16 477.80 336.00 472.00
C 331.86 471.37 330.65 473.42 333.00 476.00
C 327.92 476.02 321.28 478.22 319.00 471.00
C 323.65 469.37 326.21 472.15 329.00 474.00
C 327.50 469.49 331.02 466.26 328.00 464.00
C 329.42 458.99 337.18 460.85 338.00 456.00
C 335.63 456.96 332.51 456.21 331.00 459.00
C 329.69 455.75 331.35 452.88 327.00 452.00
C 328.77 449.33 331.32 451.89 333.00 450.00
C 328.34 447.67 322.42 452.08 319.00 448.00
C 322.13 446.24 326.81 449.86 329.00 446.00
C 321.45 448.21 314.73 440.18 308.00 444.00
C 307.65 440.83 310.33 436.77 314.00 437.00
C 313.54 434.27 313.51 432.67 314.00 430.00
C 310.66 429.01 308.92 425.71 307.00 430.00
C 308.59 426.03 308.61 423.16 306.00 420.00
C 306.99 418.88 310.00 420.50 311.00 418.00
C 306.68 417.66 302.52 417.94 299.00 420.00
C 300.03 417.95 298.85 416.22 300.00 414.00
C 302.72 413.78 302.61 418.34 306.00 417.00
C 307.92 410.49 298.19 413.35 304.00 409.00
C 298.30 411.41 293.93 413.14 287.00 413.00
C 286.41 418.67 286.41 412.39 285.00 411.00
C 285.66 417.07 281.20 425.62 277.09 429.08 C 272.97 432.55 272.97 444.18 265.00 439.00
C 263.96 446.53 250.59 442.54 250.00 452.00
C 246.81 449.33 237.67 455.24 230.22 456.22 C 222.77 457.21 214.60 456.97 207.68 453.32 C 200.75 449.68 194.41 447.44 189.25 441.75 C 184.09 436.06 178.73 433.75 174.30 427.70 C 169.88 421.65 164.21 417.54 161.30 410.70 C 158.40 403.85 154.22 397.45 153.00 390.00
C 153.00 390.00 152.95 389.49 153.00 389.00
C 147.13 372.67 151.91 354.34 154.00 338.00
C 151.27 339.50 150.16 337.47 148.00 336.00
C 149.49 334.43 148.53 333.28 148.00 332.00
C 147.26 339.29 131.52 338.15 126.25 342.25 C 120.98 346.34 109.72 347.14 103.02 350.03 C 96.33 352.91 88.53 357.19 81.02 359.02 C 73.52 360.86 65.85 366.64 58.02 368.02 C 50.20 369.41 43.04 373.72 36.08 377.08 C 29.12 380.44 22.50 383.15 16.75 388.75 C 10.99 394.35 5.63 397.15 0.00 403.00
M 67.00 489.00 
C 64.49 478.09 66.62 465.36 67.00 454.00
C 72.79 451.72 71.83 442.52 73.78 435.78 C 75.73 429.04 74.22 419.27 78.00 413.00
C 80.02 438.41 69.90 463.69 67.00 489.00
M 298.00 417.00 
C 296.19 419.41 293.31 418.80 291.00 418.00
C 291.53 414.10 295.70 415.98 298.00 417.00
M 26.00 421.00 
C 27.53 424.50 31.86 426.67 31.00 431.00
C 26.91 430.44 22.74 424.39 26.00 421.00
M 306.00 426.00 
C 300.68 422.92 292.72 427.35 288.00 423.00
C 290.77 418.78 293.95 424.17 297.03 423.97 C 300.10 423.78 306.78 419.54 306.00 426.00
M 34.00 469.00 
C 30.88 459.34 26.55 450.07 22.00 441.00
C 31.36 445.77 34.20 460.19 34.00 469.00
M 392.00 510.00 
C 390.23 508.44 387.37 508.69 386.00 507.00
C 387.38 503.44 392.51 506.82 392.00 510.00
M 56.00 519.00 
C 54.29 517.81 51.88 516.35 52.00 514.00
C 53.71 515.19 56.12 516.65 56.00 519.00
M 15.00 529.00 
C 26.15 534.49 37.94 539.88 51.00 540.00
C 52.90 536.93 44.91 536.46 47.79 533.77 C 50.67 531.08 54.70 534.20 58.00 533.00
C 58.00 536.33 58.00 539.67 58.00 543.00
C 49.42 546.10 35.47 552.01 28.00 544.00
C 25.89 547.67 19.54 548.20 17.25 543.75 C 14.95 539.30 10.85 536.71 19.00 537.00
C 9.37 534.75 10.67 524.25 6.00 517.00
C 11.36 518.19 14.00 524.10 15.00 529.00
M 363.00 517.00 
C 369.06 516.25 365.04 522.52 363.00 517.00
M 14.00 572.00 
C 9.47 569.25 7.61 565.22 4.00 561.00
C 8.58 563.24 14.46 567.43 14.00 572.00 Z"/>
</g>
<g fill="None" fill-opacity="0.0" stroke="#010403" stroke-opacity="1.00" stroke-width="0.3"><path d="
M 218.00 339.00 
C 216.92 341.62 215.99 342.27 215.00 344.00
C 219.14 345.27 221.18 342.07 218.00 339.00 Z"/>
</g>
<g fill="None" fill-opacity="0.0" stroke="#010403" stroke-opacity="1.00" stroke-width="0.3"><path d="
M 213.00 347.00 
C 214.59 345.65 213.61 342.26 213.00 341.00
C 210.95 342.97 211.38 344.81 213.00 347.00 Z"/>
</g>
<g fill="None" fill-opacity="0.0" stroke="#D7DDE2" stroke-opacity="1.00" stroke-width="0.3"><path d="
M 390.00 374.00 
C 386.78 372.51 383.61 370.20 380.00 369.00
C 383.22 370.49 386.39 372.80 390.00 374.00 Z"/>
</g>
<g fill="None" fill-opacity="0.0" stroke="#010403" stroke-opacity="1.00" stroke-width="0.3"><path d="
M 276.00 375.00 
C 273.48 377.06 271.81 384.04 275.00 386.00
C 275.67 382.06 275.14 378.96 276.00 375.00 Z"/>
</g>
<g fill="None" fill-opacity="0.0" stroke="#D7DDE2" stroke-opacity="1.00" stroke-width="0.3"><path d="
M 228.00 399.00 
C 216.23 400.52 201.94 396.67 191.75 390.25 C 181.56 383.83 184.44 394.25 187.22 398.78 C 190.00 403.30 187.93 416.79 193.25 418.74 C 198.58 420.69 205.19 420.30 210.99 423.01 C 216.79 425.72 224.17 420.04 222.00 430.00
C 228.63 434.64 246.45 428.73 240.92 421.08 C 235.38 413.44 244.52 415.57 237.00 411.00
C 241.68 407.77 236.19 402.58 239.00 397.00
C 236.41 396.54 236.09 394.08 234.00 393.00
C 233.27 396.05 228.76 395.01 228.00 399.00 Z"/>
</g>
<g fill="None" fill-opacity="0.0" stroke="#BEC7CD" stroke-opacity="1.00" stroke-width="0.3"><path d="
M 67.00 489.00 
C 69.90 463.69 80.02 438.41 78.00 413.00
C 74.22 419.27 75.73 429.04 73.78 435.78 C 71.83 442.52 72.79 451.72 67.00 454.00
C 66.62 465.36 64.49 478.09 67.00 489.00 Z"/>
</g>
<g fill="None" fill-opacity="0.0" stroke="#BEC7CD" stroke-opacity="1.00" stroke-width="0.3"><path d="
M 298.00 417.00 
C 295.70 415.98 291.53 414.10 291.00 418.00
C 293.31 418.80 296.19 419.41 298.00 417.00 Z"/>
</g>
<g fill="None" fill-opacity="0.0" stroke="#BEC7CD" stroke-opacity="1.00" stroke-width="0.3"><path d="
M 26.00 421.00 
C 22.74 424.39 26.91 430.44 31.00 431.00
C 31.86 426.67 27.53 424.50 26.00 421.00 Z"/>
</g>
<g fill="None" fill-opacity="0.0" stroke="#BEC7CD" stroke-opacity="1.00" stroke-width="0.3"><path d="
M 306.00 426.00 
C 306.78 419.54 300.10 423.78 297.03 423.97 C 293.95 424.17 290.77 418.78 288.00 423.00
C 292.72 427.35 300.68 422.92 306.00 426.00 Z"/>
</g>
<g fill="None" fill-opacity="0.0" stroke="#BEC7CD" stroke-opacity="1.00" stroke-width="0.3"><path d="
M 34.00 469.00 
C 34.20 460.19 31.36 445.77 22.00 441.00
C 26.55 450.07 30.88 459.34 34.00 469.00 Z"/>
</g>
<g fill="None" fill-opacity="0.0" stroke="#BEC7CD" stroke-opacity="1.00" stroke-width="0.3"><path d="
M 212.00 577.00 
L 225.00 577.00
C 225.15 574.90 226.59 573.27 226.00 571.00
C 222.77 571.26 223.15 568.51 225.00 567.00
C 213.65 553.40 213.71 532.01 206.97 516.03 C 200.24 500.04 190.31 484.04 177.00 473.00
C 184.70 489.87 195.19 503.84 201.23 521.77 C 207.27 539.71 210.16 558.04 216.00 574.00
C 214.59 574.78 213.09 575.99 212.00 577.00 Z"/>
</g>
<g fill="None" fill-opacity="0.0" stroke="#BEC7CD" stroke-opacity="1.00" stroke-width="0.3"><path d="
M 0.00 492.00 
C 8.97 504.60 24.69 514.00 39.00 521.00
C 26.90 508.83 9.08 501.73 0.00 486.00
L 0.00 492.00 Z"/>
</g>
<g fill="None" fill-opacity="0.0" stroke="#BEC7CD" stroke-opacity="1.00" stroke-width="0.3"><path d="
M 392.00 510.00 
C 392.51 506.82 387.38 503.44 386.00 507.00
C 387.37 508.69 390.23 508.44 392.00 510.00 Z"/>
</g>
<g fill="None" fill-opacity="0.0" stroke="#010403" stroke-opacity="1.00" stroke-width="0.3"><path d="
M 433.00 512.00 
L 433.00 510.00
C 427.05 515.53 420.43 520.89 414.00 525.00
C 421.54 523.23 427.65 517.08 433.00 512.00 Z"/>
</g>
<g fill="None" fill-opacity="0.0" stroke="#BEC7CD" stroke-opacity="1.00" stroke-width="0.3"><path d="
M 56.00 519.00 
C 56.12 516.65 53.71 515.19 52.00 514.00
C 51.88 516.35 54.29 517.81 56.00 519.00 Z"/>
</g>
<g fill="None" fill-opacity="0.0" stroke="#BEC7CD" stroke-opacity="1.00" stroke-width="0.3"><path d="
M 15.00 529.00 
C 14.00 524.10 11.36 518.19 6.00 517.00
C 10.67 524.25 9.37 534.75 19.00 537.00
C 10.85 536.71 14.95 539.30 17.25 543.75 C 19.54 548.20 25.89 547.67 28.00 544.00
C 35.47 552.01 49.42 546.10 58.00 543.00
C 58.00 539.67 58.00 536.33 58.00 533.00
C 54.70 534.20 50.67 531.08 47.79 533.77 C 44.91 536.46 52.90 536.93 51.00 540.00
C 37.94 539.88 26.15 534.49 15.00 529.00 Z"/>
</g>
<g fill="None" fill-opacity="0.0" stroke="#BEC7CD" stroke-opacity="1.00" stroke-width="0.3"><path d="
M 363.00 517.00 
C 365.04 522.52 369.06 516.25 363.00 517.00 Z"/>
</g>
<g fill="None" fill-opacity="0.0" stroke="#010403" stroke-opacity="1.00" stroke-width="0.3"><path d="
M 433.00 521.00 
L 433.00 518.00
C 426.54 524.16 418.35 528.10 412.00 534.00
C 419.83 531.57 426.48 526.22 433.00 521.00 Z"/>
</g>
<g fill="None" fill-opacity="0.0" stroke="#010403" stroke-opacity="1.00" stroke-width="0.3"><path d="
M 433.00 545.00 
L 433.00 541.00
C 425.40 541.31 420.54 548.43 413.00 549.00
C 412.72 544.41 418.35 542.24 419.00 538.00
C 412.59 542.51 404.20 546.32 403.00 555.00
C 413.29 552.54 422.22 545.51 433.00 545.00 Z"/>
</g>
<g fill="None" fill-opacity="0.0" stroke="#BEC7CD" stroke-opacity="1.00" stroke-width="0.3"><path d="
M 40.00 577.00 
L 63.00 577.00
C 57.81 569.56 62.83 559.03 57.00 552.00
C 52.22 555.44 44.48 547.21 44.00 556.00
C 52.94 555.65 61.66 574.18 47.00 571.00
C 41.24 564.07 32.90 556.64 25.00 553.00
C 27.68 562.22 36.98 568.02 40.00 577.00 Z"/>
</g>
<g fill="None" fill-opacity="0.0" stroke="#BEC7CD" stroke-opacity="1.00" stroke-width="0.3"><path d="
M 14.00 572.00 
C 14.46 567.43 8.58 563.24 4.00 561.00
C 7.61 565.22 9.47 569.25 14.00 572.00 Z"/>
</g>
<g fill="None" fill-opacity="0.0" stroke="#010403" stroke-opacity="1.00" stroke-width="0.3"><path d="
M 405.00 565.00 
C 401.98 564.46 398.76 565.22 400.00 569.00
C 401.78 567.77 405.41 568.16 405.00 565.00 Z"/>
</g>
<g fill="None" fill-opacity="0.0" stroke="#010403" stroke-opacity="1.00" stroke-width="0.3"><path d="
M 399.00 577.00 
L 407.00 577.00
C 405.34 574.36 402.18 572.01 399.00 572.00
C 399.00 573.67 399.00 575.33 399.00 577.00 Z"/>
</g>
<g fill="None" fill-opacity="0.0" stroke="#BEC7CD" stroke-opacity="1.00" stroke-width="0.3"><path d="
M 14.00 577.00 
L 26.00 577.00
C 23.55 574.01 14.92 574.01 14.00 577.00 Z"/>
</g>
<g fill="#E1E9ED" fill-opacity="1.00" stroke="None">
<path d="
M 0.00 403.00 
C 5.63 397.15 10.99 394.35 16.75 388.75 C 22.50 383.15 29.12 380.44 36.08 377.08 C 43.04 373.72 50.20 369.41 58.02 368.02 C 65.85 366.64 73.52 360.86 81.02 359.02 C 88.53 357.19 96.33 352.91 103.02 350.03 C 109.72 347.14 120.98 346.34 126.25 342.25 C 131.52 338.15 147.26 339.29 148.00 332.00
C 147.82 331.57 148.00 331.00 148.00 331.00
C 147.94 327.86 146.73 327.09 145.00 325.00
C 141.77 321.11 138.88 316.85 137.00 312.00
C 134.89 306.55 134.05 300.56 132.00 295.00
C 128.78 288.64 128.00 284.78 128.00 277.00
C 128.00 273.67 128.00 270.33 128.00 267.00
C 128.00 265.00 128.00 263.00 128.00 261.00
C 126.97 250.39 119.20 234.91 120.00 224.00 C 120.80 213.09 109.09 189.61 126.00 195.00
C 126.25 194.74 126.00 194.00 126.00 194.00
C 126.00 185.22 126.23 176.45 125.00 168.00
C 124.44 164.16 123.48 160.88 123.00 157.00
C 122.75 154.95 122.21 152.87 122.00 151.00
C 121.19 147.45 120.06 142.51 122.00 139.00
C 122.39 138.29 122.68 137.72 123.00 137.00
C 123.13 136.02 122.30 132.89 123.00 131.00
C 115.31 131.73 112.68 121.63 110.00 116.00
C 109.92 115.51 110.00 114.50 110.00 114.00
C 105.43 103.26 114.73 90.19 116.93 79.93 C 119.12 69.66 125.62 59.92 134.00 56.00
C 135.68 54.96 137.40 54.15 139.00 53.00
C 144.26 49.24 150.79 51.67 155.25 47.25 C 159.70 42.82 164.40 41.55 171.00 40.00
C 171.47 39.89 172.00 40.00 172.00 40.00
C 174.99 37.78 178.65 39.63 182.00 40.00
C 187.82 40.65 192.29 34.84 197.00 35.00
C 197.75 35.02 198.90 34.89 199.00 36.00
C 199.05 36.50 199.00 37.00 199.00 37.00
C 200.87 38.55 203.86 37.55 206.00 37.00
C 209.71 36.56 209.76 36.54 213.00 39.00
C 216.79 41.87 219.25 41.25 223.00 43.00
C 224.56 40.44 223.50 37.12 226.00 35.00
C 227.84 37.14 231.60 34.66 233.00 37.00
C 235.89 37.94 239.56 38.97 241.00 42.00
C 244.38 40.09 250.23 39.54 253.00 43.00
C 257.42 45.21 262.61 48.51 267.00 50.00
C 267.99 50.00 269.01 49.95 270.00 50.00
C 274.22 50.22 275.89 52.46 279.00 54.00
C 282.70 55.02 281.67 53.87 285.00 56.00
C 288.57 57.24 291.79 59.53 295.00 61.00
C 296.20 61.21 296.89 61.48 298.00 62.00
C 303.65 63.38 313.47 76.81 317.00 83.00
C 322.97 93.49 321.29 103.99 316.00 114.00
C 313.94 119.32 311.16 122.58 306.75 126.75 C 302.34 130.92 304.00 140.05 304.00 146.00
C 304.00 147.00 303.97 148.00 304.00 149.00
C 304.15 154.90 302.51 161.68 302.00 167.00
C 302.00 170.34 301.58 172.96 301.00 176.00
C 299.99 181.34 297.31 189.22 302.25 193.75 C 307.19 198.28 302.69 203.10 302.01 209.01 C 301.32 214.92 302.42 223.81 302.00 230.00
C 301.72 234.06 300.41 236.69 299.00 240.00
C 295.02 249.32 297.37 262.42 296.00 272.00
C 295.63 281.82 292.92 292.46 290.67 301.67 C 288.43 310.88 282.34 316.49 279.00 325.00
C 278.80 325.67 279.38 329.38 279.00 331.00
C 313.20 342.65 344.99 360.23 380.00 369.00
C 383.61 370.20 386.78 372.51 390.00 374.00
C 404.87 378.96 419.56 385.00 433.00 393.00
L 433.00 0.00
L 0.00 0.00
L 0.00 403.00 Z"/>
</g>
<g fill="#D7DDE2" fill-opacity="1.00" stroke="None">
<path d="
M 182.00 40.00 
C 185.37 41.01 187.41 40.29 191.00 42.00
C 191.02 37.09 197.80 39.59 197.00 35.00
C 192.29 34.84 187.82 40.65 182.00 40.00 Z"/>
</g>
<g fill="#BEC7CD" fill-opacity="1.00" stroke="None">
<path d="
M 182.00 40.00 
C 178.65 39.63 174.99 37.78 172.00 40.00
C 173.58 39.64 175.40 40.27 177.00 40.00
C 176.10 44.31 179.74 43.25 182.00 44.00
C 180.74 45.89 177.20 45.05 176.00 47.00
C 179.59 48.35 184.50 47.60 185.00 43.00
C 191.70 45.51 194.24 38.71 199.00 36.00
C 198.90 34.89 197.75 35.02 197.00 35.00
C 197.80 39.59 191.02 37.09 191.00 42.00
C 187.41 40.29 185.37 41.01 182.00 40.00 Z"/>
</g>
<g fill="#BEC7CD" fill-opacity="1.00" stroke="None">
<path d="
M 213.00 39.00 
C 211.39 38.06 209.85 37.25 208.00 37.00
C 213.16 41.14 217.92 43.76 224.00 45.00
C 224.61 40.46 229.80 40.13 232.00 37.00
C 233.44 39.79 236.38 41.21 237.00 44.00
C 238.20 41.26 244.44 43.68 245.00 46.00
C 251.60 36.92 258.65 52.60 267.00 50.00
C 262.61 48.51 257.42 45.21 253.00 43.00
C 248.82 41.61 244.73 40.64 241.00 43.00
C 239.77 39.01 234.60 40.21 233.00 37.00
C 231.60 34.66 227.84 37.14 226.00 35.00
C 223.50 37.12 224.56 40.44 223.00 43.00
C 219.25 41.25 216.79 41.87 213.00 39.00 Z"/>
</g>
<g fill="#010403" fill-opacity="1.00" stroke="None">
<path d="
M 172.00 40.00 
C 172.00 40.00 171.47 39.89 171.00 40.00
C 166.43 43.67 159.83 42.78 156.23 47.23 C 152.63 51.69 147.05 54.60 141.00 55.00
C 141.36 53.20 140.80 51.58 139.00 53.00
C 137.40 54.15 135.68 54.96 134.00 56.00
C 117.79 66.03 110.00 95.87 110.00 114.00
C 110.00 114.50 109.92 115.51 110.00 116.00
C 111.04 118.21 111.72 117.40 113.00 116.00
C 115.51 118.77 116.52 122.19 116.00 126.00
C 120.17 125.74 119.32 126.20 118.00 129.00
C 122.66 129.37 125.61 132.38 123.00 137.00
C 122.68 137.72 122.39 138.29 122.00 139.00
C 121.29 142.34 121.62 147.59 122.00 151.00
C 122.21 152.87 122.75 154.95 123.00 157.00
C 123.24 157.92 124.15 160.28 125.00 161.00
C 127.06 147.49 134.05 140.02 142.26 130.26 C 150.47 120.50 165.14 120.23 176.68 118.34 C 188.21 116.44 202.83 123.45 212.00 116.00
C 222.55 126.63 237.07 122.17 249.22 124.78 C 261.38 127.38 279.23 130.00 284.78 143.22 C 290.33 156.45 298.66 165.35 298.00 180.00
C 299.64 179.29 299.29 176.62 301.00 176.00
C 301.58 172.96 302.00 170.34 302.00 167.00
C 302.00 160.47 302.98 154.67 304.00 149.00
C 303.97 148.00 304.00 147.00 304.00 146.00
C 302.88 140.88 302.91 134.53 302.00 129.00
C 312.40 122.08 320.10 106.93 319.00 94.00 C 317.90 81.07 306.02 70.54 298.00 62.00
C 296.89 61.48 296.20 61.21 295.00 61.00
C 290.18 60.17 285.92 56.75 281.26 56.40 C 276.59 56.05 274.57 51.04 270.00 50.00
C 269.01 49.95 267.99 50.00 267.00 50.00
C 258.65 52.60 251.60 36.92 245.00 46.00
C 244.44 43.68 238.20 41.26 237.00 44.00
C 236.38 41.21 233.44 39.79 232.00 37.00
C 229.80 40.13 224.61 40.46 224.00 45.00
C 217.92 43.76 213.16 41.14 208.00 37.00
C 207.51 36.93 207.00 37.00 207.00 37.00
C 204.79 38.07 202.59 40.41 200.00 41.00
C 198.64 39.62 200.33 38.47 199.00 37.00
C 199.00 37.00 199.05 36.50 199.00 36.00
C 194.24 38.71 191.70 45.51 185.00 43.00
C 184.50 47.60 179.59 48.35 176.00 47.00
C 177.20 45.05 180.74 45.89 182.00 44.00
C 179.74 43.25 176.10 44.31 177.00 40.00
C 175.40 40.27 173.58 39.64 172.00 40.00
M 186.00 51.00 
C 182.61 46.65 181.46 54.96 177.00 54.00
C 177.82 50.85 185.95 44.31 186.00 51.00 Z"/>
</g>
<g fill="#D7DDE2" fill-opacity="1.00" stroke="None">
<path d="
M 206.00 37.00 
C 206.47 36.88 207.00 37.00 207.00 37.00
C 207.00 37.00 207.51 36.93 208.00 37.00
C 209.85 37.25 211.39 38.06 213.00 39.00
C 209.76 36.54 209.71 36.56 206.00 37.00 Z"/>
</g>
<g fill="#BEC7CD" fill-opacity="1.00" stroke="None">
<path d="
M 207.00 37.00 
C 207.00 37.00 206.47 36.88 206.00 37.00
C 203.86 37.55 200.87 38.55 199.00 37.00
C 200.33 38.47 198.64 39.62 200.00 41.00
C 202.59 40.41 204.79 38.07 207.00 37.00 Z"/>
</g>
<g fill="#D7DDE2" fill-opacity="1.00" stroke="None">
<path d="
M 253.00 43.00 
C 250.23 39.54 244.38 40.09 241.00 42.00
C 239.56 38.97 235.89 37.94 233.00 37.00
C 234.60 40.21 239.77 39.01 241.00 43.00
C 244.73 40.64 248.82 41.61 253.00 43.00 Z"/>
</g>
<g fill="#BEC7CD" fill-opacity="1.00" stroke="None">
<path d="
M 139.00 53.00 
C 140.80 51.58 141.36 53.20 141.00 55.00
C 147.05 54.60 152.63 51.69 156.23 47.23 C 159.83 42.78 166.43 43.67 171.00 40.00
C 164.40 41.55 159.70 42.82 155.25 47.25 C 150.79 51.67 144.26 49.24 139.00 53.00 Z"/>
</g>
<g fill="#BEC7CD" fill-opacity="1.00" stroke="None">
<path d="
M 186.00 51.00 
C 185.95 44.31 177.82 50.85 177.00 54.00
C 181.46 54.96 182.61 46.65 186.00 51.00 Z"/>
</g>
<g fill="#BEC7CD" fill-opacity="1.00" stroke="None">
<path d="
M 295.00 61.00 
C 291.79 59.53 288.57 57.24 285.00 56.00
C 282.92 55.28 280.71 54.85 279.00 54.00
C 275.89 52.46 274.22 50.22 270.00 50.00
C 274.57 51.04 276.59 56.05 281.26 56.40 C 285.92 56.75 290.18 60.17 295.00 61.00 Z"/>
</g>
<g fill="#D7DDE2" fill-opacity="1.00" stroke="None">
<path d="
M 279.00 54.00 
C 280.71 54.85 282.92 55.28 285.00 56.00
C 281.67 53.87 282.70 55.02 279.00 54.00 Z"/>
</g>
<g fill="#BEC7CD" fill-opacity="1.00" stroke="None">
<path d="
M 110.00 114.00 
C 110.00 95.87 117.79 66.03 134.00 56.00
C 125.62 59.92 119.12 69.66 116.93 79.93 C 114.73 90.19 105.43 103.26 110.00 114.00 Z"/>
</g>
<g fill="#BEC7CD" fill-opacity="1.00" stroke="None">
<path d="
M 298.00 62.00 
C 306.02 70.54 317.90 81.07 319.00 94.00 C 320.10 106.93 312.40 122.08 302.00 129.00
C 302.91 134.53 302.88 140.88 304.00 146.00
C 304.00 140.05 302.34 130.92 306.75 126.75 C 311.16 122.58 313.94 119.32 316.00 114.00
C 320.07 103.50 321.08 93.77 317.00 83.00
C 313.47 76.81 303.65 63.38 298.00 62.00 Z"/>
</g>
<g fill="#D7DDE2" fill-opacity="1.00" stroke="None">
<path d="
M 316.00 114.00 
C 321.29 103.99 322.97 93.49 317.00 83.00
C 321.08 93.77 320.07 103.50 316.00 114.00 Z"/>
</g>
<g fill="#BEC7CD" fill-opacity="1.00" stroke="None">
<path d="
M 123.00 137.00 
C 125.61 132.38 122.66 129.37 118.00 129.00
C 119.32 126.20 120.17 125.74 116.00 126.00
C 116.52 122.19 115.51 118.77 113.00 116.00
C 111.72 117.40 111.04 118.21 110.00 116.00
C 112.68 121.63 115.31 131.73 123.00 131.00
C 122.30 132.89 123.13 136.02 123.00 137.00 Z"/>
</g>
<g fill="#BEC7CD" fill-opacity="1.00" stroke="None">
<path d="
M 123.00 157.00 
C 123.48 160.88 124.44 164.16 125.00 168.00
C 126.56 173.67 130.05 188.53 126.00 194.00
C 126.00 194.00 126.25 194.74 126.00 195.00
C 124.02 197.06 121.97 192.51 119.00 194.00
C 128.14 199.03 128.31 218.08 126.00 229.00 C 123.69 239.92 127.43 248.52 128.00 261.00
C 128.00 263.00 128.00 265.00 128.00 267.00
C 128.30 270.14 128.30 273.92 128.00 277.00
C 128.00 284.78 128.78 288.64 132.00 295.00
C 130.12 289.90 126.90 283.21 130.00 278.00
C 130.96 284.74 133.78 291.93 135.77 298.23 C 137.76 304.53 139.05 311.84 143.25 316.75 C 147.45 321.67 149.68 327.93 154.75 331.25 C 159.82 334.57 165.03 344.44 166.00 336.00
C 168.76 338.12 168.85 343.73 173.00 338.00
C 171.62 344.83 179.60 344.49 179.00 354.00
C 181.11 354.07 181.82 349.23 183.00 351.00
C 185.06 352.39 185.98 354.29 188.00 356.00
C 194.07 352.33 201.13 355.36 197.00 363.00
C 199.62 359.94 205.99 358.89 207.00 354.00
C 206.16 362.68 216.68 361.80 221.00 358.00
C 219.64 355.73 215.93 359.51 217.00 355.00
C 219.53 356.20 224.76 352.02 227.00 349.00
C 229.15 350.49 231.14 352.52 233.00 354.00
C 235.81 350.02 248.93 348.10 245.00 340.00
C 251.92 342.06 252.64 332.09 257.77 328.77 C 262.89 325.45 268.19 319.81 270.00 314.00
C 276.45 314.53 278.18 307.41 282.70 302.70 C 287.23 298.00 287.61 289.70 287.00 284.00
C 290.99 282.55 290.48 274.76 292.70 269.70 C 294.92 264.65 290.05 254.24 295.00 249.00
C 297.25 256.17 295.39 264.41 296.00 272.00
C 297.37 262.42 295.02 249.32 299.00 240.00
C 299.77 236.94 301.52 232.66 302.00 230.00
C 302.42 223.81 301.32 214.92 302.01 209.01 C 302.69 203.10 307.19 198.28 302.25 193.75 C 297.31 189.22 299.99 181.34 301.00 176.00
C 299.29 176.62 299.64 179.29 298.00 180.00
C 298.66 165.35 290.33 156.45 284.78 143.22 C 279.23 130.00 261.38 127.38 249.22 124.78 C 237.07 122.17 222.55 126.63 212.00 116.00
C 202.83 123.45 188.21 116.44 176.68 118.34 C 165.14 120.23 150.47 120.50 142.26 130.26 C 134.05 140.02 127.06 147.49 125.00 161.00
C 124.15 160.28 123.24 157.92 123.00 157.00
M 210.00 119.00 
C 208.93 123.08 216.79 126.22 222.69 126.65 C 228.60 127.07 233.05 129.13 239.08 132.92 C 245.11 136.70 245.31 141.18 252.00 144.00
C 249.53 148.44 258.47 152.59 258.39 158.75 C 258.32 164.92 258.37 171.63 257.00 179.00
C 262.25 179.01 259.73 187.40 261.00 191.00
C 252.80 196.35 247.24 195.98 237.93 198.93 C 228.62 201.88 231.92 212.79 224.70 218.70 C 217.47 224.60 219.18 235.69 221.13 242.92 C 223.09 250.14 218.57 257.66 223.97 265.03 C 229.37 272.41 218.76 280.10 218.00 287.00
C 213.50 286.11 215.27 289.67 214.00 292.00
C 210.72 290.17 210.63 286.90 207.00 291.00
C 200.41 290.79 194.76 277.20 190.00 284.00
C 192.22 283.87 196.08 284.07 196.00 287.00
C 192.19 289.02 188.54 281.75 184.92 285.92 C 181.30 290.08 178.34 287.76 174.00 291.00
C 174.57 283.93 167.97 295.66 164.00 296.00
C 162.40 304.11 160.08 307.65 163.93 315.07 C 167.77 322.50 173.82 317.03 170.00 310.00
C 177.68 312.81 190.18 316.68 189.00 326.00
C 195.27 323.90 195.07 334.17 201.00 332.00
C 198.71 336.51 202.44 341.40 203.00 346.00
C 197.61 350.43 193.01 348.75 187.00 349.00
C 187.03 343.00 180.69 341.93 178.75 337.25 C 176.82 332.57 175.87 325.68 170.00 328.00
C 168.79 323.69 164.06 320.58 160.75 319.24 C 157.45 317.91 154.78 312.19 149.00 312.00
C 144.52 302.61 136.11 291.35 134.79 280.77 C 133.46 270.19 129.80 258.73 132.21 248.77 C 134.63 238.81 126.06 226.33 134.00 217.00
C 137.93 217.78 138.95 223.49 141.00 227.00
C 143.65 223.35 148.63 227.66 149.00 231.00
C 158.21 234.50 164.74 229.19 154.00 224.00
C 156.10 221.54 158.28 217.57 162.00 218.00
C 160.96 232.78 181.12 233.92 191.00 230.00
C 194.94 235.05 188.12 239.04 191.00 245.00
C 195.04 243.37 191.90 246.23 193.00 248.00
C 195.42 245.62 196.34 243.79 200.00 244.00
C 198.72 239.42 204.03 234.25 201.02 228.98 C 198.02 223.70 194.50 221.55 190.26 217.74 C 186.01 213.94 194.63 207.16 193.00 203.00
C 188.75 199.13 182.63 199.13 181.00 194.00
C 173.63 192.65 169.39 192.93 165.00 188.00
C 161.78 189.29 158.93 187.75 156.00 189.00
C 154.75 185.06 154.20 180.83 150.00 178.00
C 152.09 173.48 153.54 167.95 154.00 162.00
C 157.61 160.12 161.46 155.21 162.92 149.92 C 164.39 144.64 170.83 141.35 168.00 136.00
C 173.58 138.52 177.65 127.16 181.00 124.00
C 184.28 124.81 186.73 123.63 189.00 127.00
C 191.04 122.65 194.21 121.49 198.75 122.40 C 203.29 123.30 207.63 120.89 210.00 119.00
M 289.00 215.00 
C 287.85 211.82 286.13 209.18 285.00 206.00
C 270.48 201.36 254.20 209.32 239.00 208.00
C 237.39 205.51 239.81 204.47 240.00 202.00
C 243.09 203.25 246.70 201.77 250.00 204.00
C 246.39 200.43 251.09 196.37 255.00 199.00
C 256.85 191.94 266.47 194.52 272.00 195.00
C 272.30 190.91 266.19 194.78 265.00 192.00
C 273.44 186.80 277.93 191.09 283.25 196.75 C 288.58 202.40 296.20 209.13 289.00 215.00
M 175.00 196.00 
C 175.91 203.57 185.62 199.39 186.00 207.00
C 177.88 206.91 170.20 204.12 162.00 202.00
C 162.93 195.27 154.03 194.99 151.00 192.00
C 159.84 188.19 167.05 197.18 175.00 196.00
M 299.00 199.00 
C 294.80 199.11 298.82 197.25 295.00 195.00
C 297.54 194.28 299.64 196.49 299.00 199.00
M 158.00 198.00 
C 156.63 200.24 153.89 199.69 151.00 200.00
C 149.81 195.09 156.11 195.60 158.00 198.00
M 139.00 197.00 
C 137.98 198.67 137.42 201.70 135.00 202.00
C 136.03 199.83 136.18 197.55 139.00 197.00
M 171.00 208.00 
C 159.31 209.39 145.50 208.62 141.00 220.00
C 139.23 217.02 139.87 217.32 138.00 220.00
C 136.46 214.24 137.95 211.03 139.00 206.00
C 143.56 206.35 147.38 205.79 146.00 202.00
C 156.45 200.97 163.40 200.36 171.00 208.00
M 170.00 222.00 
C 165.13 224.98 168.86 215.89 170.00 221.00
C 172.56 217.78 165.88 216.91 165.00 220.00
C 164.35 217.29 161.29 217.59 160.00 216.00
C 165.65 215.59 173.37 215.25 179.00 218.00
C 177.66 221.88 170.92 220.71 172.00 226.00
C 169.47 226.63 170.10 223.47 170.00 222.00
M 274.00 217.00 
C 274.51 219.99 277.96 220.28 279.00 223.00
C 276.91 224.32 275.40 226.29 273.00 227.00
C 273.30 221.48 267.84 220.14 262.00 219.00
C 262.58 222.90 261.83 226.36 259.00 229.00
C 255.90 225.48 256.90 229.70 254.00 230.00
C 253.19 225.05 248.03 223.20 246.00 219.00
C 254.82 212.51 264.83 218.20 274.00 217.00
M 158.00 219.00 
C 155.37 220.70 150.57 221.49 150.00 225.00
C 140.17 222.24 154.39 215.40 158.00 219.00
M 189.00 230.00 
C 184.40 229.69 180.18 228.72 175.00 229.00
C 177.01 226.41 178.19 223.38 178.00 220.00
C 183.04 221.99 186.38 226.18 189.00 230.00
M 259.00 231.00 
C 260.16 227.21 264.75 224.90 263.00 220.00
C 272.61 219.73 265.22 231.63 259.00 231.00
M 247.00 221.00 
C 244.70 227.94 255.62 229.81 254.00 235.00
C 260.76 238.03 268.07 237.97 275.00 237.00
C 274.92 241.26 276.39 237.40 279.00 240.00
C 281.18 254.61 272.78 272.73 271.00 284.00
C 263.35 288.36 256.40 282.13 251.00 285.00
C 247.70 275.90 242.47 267.68 237.75 259.25 C 233.02 250.82 234.59 240.93 232.00 231.00
C 238.36 232.78 245.74 230.87 252.00 233.00
C 250.08 227.93 237.37 233.45 238.00 225.00
C 242.02 225.44 243.37 220.52 247.00 221.00
M 223.00 302.00 
C 225.42 304.85 218.63 305.91 215.78 306.78 C 212.93 307.64 206.12 305.34 203.00 305.00
C 208.15 301.59 217.67 307.02 222.00 302.00
C 214.39 306.34 212.71 298.59 217.77 294.77 C 222.83 290.95 228.13 292.72 232.00 288.00
C 241.43 290.93 247.09 288.14 256.69 292.31 C 266.30 296.47 263.80 311.95 260.00 320.00
C 257.89 317.07 256.58 312.30 258.00 308.00
C 254.60 303.52 248.94 305.72 245.75 302.24 C 242.56 298.77 236.40 303.27 235.00 299.00
C 232.45 302.24 226.94 300.93 223.00 302.00
M 201.00 291.00 
C 198.78 297.50 206.81 294.09 211.00 294.00
C 215.54 305.86 198.25 303.91 197.00 298.00
C 194.72 300.88 192.40 299.73 189.00 302.00
C 181.88 292.94 195.20 288.75 201.00 291.00
M 181.00 297.00 
C 174.28 300.10 175.21 293.26 181.00 297.00
M 175.00 301.00 
C 169.48 303.14 167.92 308.85 166.00 314.00
C 164.58 308.53 166.89 297.45 175.00 301.00
M 247.00 309.00 
C 246.23 311.64 243.88 313.33 241.00 313.00
C 241.11 310.51 244.84 307.62 247.00 309.00
M 207.00 329.00 
C 211.25 328.45 213.68 328.45 218.00 329.00
C 214.33 335.07 207.62 329.86 202.00 331.00
C 201.52 328.34 205.53 327.68 205.00 325.00
C 202.22 324.26 202.77 323.17 202.00 321.00
C 205.31 321.81 208.50 317.90 209.77 323.23 C 211.04 328.56 208.35 325.31 207.00 329.00
M 217.00 320.00 
C 216.60 322.30 216.54 325.37 215.00 327.00
C 214.81 321.17 214.40 328.43 211.00 327.00
C 210.70 323.06 213.62 319.97 217.00 320.00
M 218.00 339.00 
C 221.18 342.07 219.14 345.27 215.00 344.00
C 215.99 342.27 216.92 341.62 218.00 339.00
M 213.00 347.00 
C 211.38 344.81 210.95 342.97 213.00 341.00
C 213.61 342.26 214.59 345.65 213.00 347.00 Z"/>
</g>
<g fill="#D7DDE2" fill-opacity="1.00" stroke="None">
<path d="
M 210.00 119.00 
C 207.63 120.89 203.29 123.30 198.75 122.40 C 194.21 121.49 191.04 122.65 189.00 127.00
C 186.73 123.63 184.28 124.81 181.00 124.00
C 177.65 127.16 173.58 138.52 168.00 136.00
C 170.83 141.35 164.39 144.64 162.92 149.92 C 161.46 155.21 157.61 160.12 154.00 162.00
C 153.54 167.95 152.09 173.48 150.00 178.00
C 154.20 180.83 154.75 185.06 156.00 189.00
C 158.93 187.75 161.78 189.29 165.00 188.00
C 169.39 192.93 173.63 192.65 181.00 194.00
C 182.63 199.13 188.75 199.13 193.00 203.00
C 194.63 207.16 186.01 213.94 190.26 217.74 C 194.50 221.55 198.02 223.70 201.02 228.98 C 204.03 234.25 198.72 239.42 200.00 244.00
C 196.34 243.79 195.42 245.62 193.00 248.00
C 191.90 246.23 195.04 243.37 191.00 245.00
C 188.12 239.04 194.94 235.05 191.00 230.00
C 181.12 233.92 160.96 232.78 162.00 218.00
C 158.28 217.57 156.10 221.54 154.00 224.00
C 164.74 229.19 158.21 234.50 149.00 231.00
C 148.63 227.66 143.65 223.35 141.00 227.00
C 138.95 223.49 137.93 217.78 134.00 217.00
C 126.06 226.33 134.63 238.81 132.21 248.77 C 129.80 258.73 133.46 270.19 134.79 280.77 C 136.11 291.35 144.52 302.61 149.00 312.00
C 154.78 312.19 157.45 317.91 160.75 319.24 C 164.06 320.58 168.79 323.69 170.00 328.00
C 175.87 325.68 176.82 332.57 178.75 337.25 C 180.69 341.93 187.03 343.00 187.00 349.00
C 193.01 348.75 197.61 350.43 203.00 346.00
C 202.44 341.40 198.71 336.51 201.00 332.00
C 195.07 334.17 195.27 323.90 189.00 326.00
C 190.18 316.68 177.68 312.81 170.00 310.00
C 173.82 317.03 167.77 322.50 163.93 315.07 C 160.08 307.65 162.40 304.11 164.00 296.00
C 167.97 295.66 174.57 283.93 174.00 291.00
C 178.34 287.76 181.30 290.08 184.92 285.92 C 188.54 281.75 192.19 289.02 196.00 287.00
C 196.08 284.07 192.22 283.87 190.00 284.00
C 194.76 277.20 200.41 290.79 207.00 291.00
C 210.63 286.90 210.72 290.17 214.00 292.00
C 215.27 289.67 213.50 286.11 218.00 287.00
C 218.76 280.10 229.37 272.41 223.97 265.03 C 218.57 257.66 223.09 250.14 221.13 242.92 C 219.18 235.69 217.47 224.60 224.70 218.70 C 231.92 212.79 228.62 201.88 237.93 198.93 C 247.24 195.98 252.80 196.35 261.00 191.00
C 259.73 187.40 262.25 179.01 257.00 179.00
C 258.37 171.63 258.32 164.92 258.39 158.75 C 258.47 152.59 249.53 148.44 252.00 144.00
C 245.31 141.18 245.11 136.70 239.08 132.92 C 233.05 129.13 228.60 127.07 222.69 126.65 C 216.79 126.22 208.93 123.08 210.00 119.00 Z"/>
</g>
<g fill="#BEC7CD" fill-opacity="1.00" stroke="None">
<path d="
M 122.00 151.00 
C 121.62 147.59 121.29 142.34 122.00 139.00
C 120.06 142.51 121.19 147.45 122.00 151.00 Z"/>
</g>
<g fill="#BEC7CD" fill-opacity="1.00" stroke="None">
<path d="
M 302.00 167.00 
C 302.51 161.68 304.15 154.90 304.00 149.00
C 302.98 154.67 302.00 160.47 302.00 167.00 Z"/>
</g>
<g fill="#D7DDE2" fill-opacity="1.00" stroke="None">
<path d="
M 126.00 194.00 
C 130.05 188.53 126.56 173.67 125.00 168.00
C 126.23 176.45 126.00 185.22 126.00 194.00 Z"/>
</g>
<g fill="#010403" fill-opacity="1.00" stroke="None">
<path d="
M 289.00 215.00 
C 296.20 209.13 288.58 202.40 283.25 196.75 C 277.93 191.09 273.44 186.80 265.00 192.00
C 266.19 194.78 272.30 190.91 272.00 195.00
C 266.47 194.52 256.85 191.94 255.00 199.00
C 251.09 196.37 246.39 200.43 250.00 204.00
C 246.70 201.77 243.09 203.25 240.00 202.00
C 239.81 204.47 237.39 205.51 239.00 208.00
C 254.20 209.32 270.48 201.36 285.00 206.00
C 286.13 209.18 287.85 211.82 289.00 215.00 Z"/>
</g>
<g fill="#010403" fill-opacity="1.00" stroke="None">
<path d="
M 175.00 196.00 
C 167.05 197.18 159.84 188.19 151.00 192.00
C 154.03 194.99 162.93 195.27 162.00 202.00
C 170.20 204.12 177.88 206.91 186.00 207.00
C 185.62 199.39 175.91 203.57 175.00 196.00 Z"/>
</g>
<g fill="#D7DDE2" fill-opacity="1.00" stroke="None">
<path d="
M 128.00 261.00 
C 127.43 248.52 123.69 239.92 126.00 229.00 C 128.31 218.08 128.14 199.03 119.00 194.00
C 121.97 192.51 124.02 197.06 126.00 195.00
C 109.09 189.61 120.80 213.09 120.00 224.00 C 119.20 234.91 126.97 250.39 128.00 261.00 Z"/>
</g>
<g fill="#010403" fill-opacity="1.00" stroke="None">
<path d="
M 299.00 199.00 
C 299.64 196.49 297.54 194.28 295.00 195.00
C 298.82 197.25 294.80 199.11 299.00 199.00 Z"/>
</g>
<g fill="#010403" fill-opacity="1.00" stroke="None">
<path d="
M 158.00 198.00 
C 156.11 195.60 149.81 195.09 151.00 200.00
C 153.89 199.69 156.63 200.24 158.00 198.00 Z"/>
</g>
<g fill="#010403" fill-opacity="1.00" stroke="None">
<path d="
M 139.00 197.00 
C 136.18 197.55 136.03 199.83 135.00 202.00
C 137.42 201.70 137.98 198.67 139.00 197.00 Z"/>
</g>
<g fill="#D7DDE2" fill-opacity="1.00" stroke="None">
<path d="
M 171.00 208.00 
C 163.40 200.36 156.45 200.97 146.00 202.00
C 147.38 205.79 143.56 206.35 139.00 206.00
C 137.95 211.03 136.46 214.24 138.00 220.00
C 139.87 217.32 139.23 217.02 141.00 220.00
C 145.50 208.62 159.31 209.39 171.00 208.00 Z"/>
</g>
<g fill="#010403" fill-opacity="1.00" stroke="None">
<path d="
M 170.00 221.00 
C 169.76 221.31 170.00 222.00 170.00 222.00
C 170.10 223.47 169.47 226.63 172.00 226.00
C 170.92 220.71 177.66 221.88 179.00 218.00
C 173.37 215.25 165.65 215.59 160.00 216.00
C 161.29 217.59 164.35 217.29 165.00 220.00
C 165.88 216.91 172.56 217.78 170.00 221.00 Z"/>
</g>
<g fill="#010403" fill-opacity="1.00" stroke="None">
<path d="
M 274.00 217.00 
C 264.83 218.20 254.82 212.51 246.00 219.00
C 248.03 223.20 253.19 225.05 254.00 230.00
C 256.90 229.70 255.90 225.48 259.00 229.00
C 261.83 226.36 262.58 222.90 262.00 219.00
C 267.84 220.14 273.30 221.48 273.00 227.00
C 275.40 226.29 276.91 224.32 279.00 223.00
C 277.96 220.28 274.51 219.99 274.00 217.00
M 252.00 224.00 
C 250.56 215.27 260.20 222.79 252.00 224.00 Z"/>
</g>
<g fill="#010403" fill-opacity="1.00" stroke="None">
<path d="
M 158.00 219.00 
C 154.39 215.40 140.17 222.24 150.00 225.00
C 150.57 221.49 155.37 220.70 158.00 219.00 Z"/>
</g>
<g fill="#E1E9ED" fill-opacity="1.00" stroke="None">
<path d="
M 170.00 222.00 
C 170.00 222.00 169.76 221.31 170.00 221.00
C 168.86 215.89 165.13 224.98 170.00 222.00 Z"/>
</g>
<g fill="#BEC7CD" fill-opacity="1.00" stroke="None">
<path d="
M 252.00 224.00 
C 260.20 222.79 250.56 215.27 252.00 224.00 Z"/>
</g>
<g fill="#D7DDE2" fill-opacity="1.00" stroke="None">
<path d="
M 189.00 230.00 
C 186.38 226.18 183.04 221.99 178.00 220.00
C 178.19 223.38 177.01 226.41 175.00 229.00
C 180.18 228.72 184.40 229.69 189.00 230.00 Z"/>
</g>
<g fill="#D7DDE2" fill-opacity="1.00" stroke="None">
<path d="
M 259.00 231.00 
C 265.22 231.63 272.61 219.73 263.00 220.00
C 264.75 224.90 260.16 227.21 259.00 231.00 Z"/>
</g>
<g fill="#D7DDE2" fill-opacity="1.00" stroke="None">
<path d="
M 247.00 221.00 
C 243.37 220.52 242.02 225.44 238.00 225.00
C 237.37 233.45 250.08 227.93 252.00 233.00
C 245.74 230.87 238.36 232.78 232.00 231.00
C 234.59 240.93 233.02 250.82 237.75 259.25 C 242.47 267.68 247.70 275.90 251.00 285.00
C 256.40 282.13 263.35 288.36 271.00 284.00
C 272.78 272.73 281.18 254.61 279.00 240.00
C 276.39 237.40 274.92 241.26 275.00 237.00
C 268.07 237.97 260.76 238.03 254.00 235.00
C 255.62 229.81 244.70 227.94 247.00 221.00 Z"/>
</g>
<g fill="#D7DDE2" fill-opacity="1.00" stroke="None">
<path d="
M 299.00 240.00 
C 300.41 236.69 301.72 234.06 302.00 230.00
C 301.52 232.66 299.77 236.94 299.00 240.00 Z"/>
</g>
<g fill="#010403" fill-opacity="1.00" stroke="None">
<path d="
M 132.00 295.00 
C 134.05 300.56 134.89 306.55 137.00 312.00
C 138.99 316.02 142.63 321.01 145.00 325.00
C 146.73 327.09 147.94 327.86 148.00 331.00
C 158.38 335.34 155.93 345.66 153.01 355.01 C 150.09 364.36 154.05 379.30 153.00 389.00
C 152.95 389.49 153.00 390.00 153.00 390.00
C 161.05 399.38 162.33 414.19 172.75 423.25 C 183.17 432.31 189.23 441.90 201.23 448.77 C 213.23 455.65 230.30 457.92 242.69 450.69 C 255.09 443.47 263.55 436.95 270.30 424.30 C 277.06 411.66 281.92 397.49 283.00 383.00
C 282.02 386.75 278.62 388.21 275.00 389.00
C 280.06 397.32 266.45 403.54 269.00 413.00 C 271.56 422.46 262.42 427.93 254.92 433.92 C 247.42 439.91 240.49 442.89 233.75 442.19 C 227.00 441.49 217.55 442.85 212.23 437.42 C 206.91 432.00 196.64 433.08 189.97 427.03 C 183.30 420.98 176.27 415.18 169.92 408.08 C 163.56 400.98 161.81 389.96 158.00 381.00 C 154.20 372.04 153.48 356.66 157.00 347.00
C 165.62 349.46 167.28 359.09 173.75 364.25 C 180.23 369.41 178.87 382.13 189.00 383.00
C 188.48 380.17 183.38 379.13 185.00 375.00
C 192.49 385.26 209.54 399.05 224.00 393.00 C 238.46 386.96 245.97 373.20 254.00 361.00
C 263.65 360.80 262.58 346.44 273.00 348.00
C 276.26 355.81 272.24 364.54 276.00 374.00
C 276.42 369.80 277.49 356.71 284.00 361.00
C 286.90 347.87 278.16 336.50 279.00 325.00
C 282.34 316.49 288.43 310.88 290.67 301.67 C 292.92 292.46 295.63 281.82 296.00 272.00
C 295.39 264.41 297.25 256.17 295.00 249.00
C 290.05 254.24 294.92 264.65 292.70 269.70 C 290.48 274.76 290.99 282.55 287.00 284.00
C 287.61 289.70 287.23 298.00 282.70 302.70 C 278.18 307.41 276.45 314.53 270.00 314.00
C 268.19 319.81 262.89 325.45 257.77 328.77 C 252.64 332.09 251.92 342.06 245.00 340.00
C 248.93 348.10 235.81 350.02 233.00 354.00
C 231.14 352.52 229.15 350.49 227.00 349.00
C 224.76 352.02 219.53 356.20 217.00 355.00
C 215.93 359.51 219.64 355.73 221.00 358.00
C 216.68 361.80 206.16 362.68 207.00 354.00
C 205.99 358.89 199.62 359.94 197.00 363.00
C 201.13 355.36 194.07 352.33 188.00 356.00
C 185.98 354.29 185.06 352.39 183.00 351.00
C 181.82 349.23 181.11 354.07 179.00 354.00
C 179.60 344.49 171.62 344.83 173.00 338.00
C 168.85 343.73 168.76 338.12 166.00 336.00
C 165.03 344.44 159.82 334.57 154.75 331.25 C 149.68 327.93 147.45 321.67 143.25 316.75 C 139.05 311.84 137.76 304.53 135.77 298.23 C 133.78 291.93 130.96 284.74 130.00 278.00
C 126.90 283.21 130.12 289.90 132.00 295.00 Z"/>
</g>
<g fill="#D7DDE2" fill-opacity="1.00" stroke="None">
<path d="
M 128.00 277.00 
C 128.30 273.92 128.30 270.14 128.00 267.00
C 128.00 270.33 128.00 273.67 128.00 277.00 Z"/>
</g>
<g fill="#010403" fill-opacity="1.00" stroke="None">
<path d="
M 222.00 302.00 
C 222.38 301.78 223.00 302.00 223.00 302.00
C 226.94 300.93 232.45 302.24 235.00 299.00
C 236.40 303.27 242.56 298.77 245.75 302.24 C 248.94 305.72 254.60 303.52 258.00 308.00
C 256.58 312.30 257.89 317.07 260.00 320.00
C 263.80 311.95 266.30 296.47 256.69 292.31 C 247.09 288.14 241.43 290.93 232.00 288.00
C 228.13 292.72 222.83 290.95 217.77 294.77 C 212.71 298.59 214.39 306.34 222.00 302.00 Z"/>
</g>
<g fill="#010403" fill-opacity="1.00" stroke="None">
<path d="
M 201.00 291.00 
C 195.20 288.75 181.88 292.94 189.00 302.00
C 192.40 299.73 194.72 300.88 197.00 298.00
C 198.25 303.91 215.54 305.86 211.00 294.00
C 206.81 294.09 198.78 297.50 201.00 291.00 Z"/>
</g>
<g fill="#010403" fill-opacity="1.00" stroke="None">
<path d="
M 181.00 297.00 
C 175.21 293.26 174.28 300.10 181.00 297.00 Z"/>
</g>
<g fill="#010403" fill-opacity="1.00" stroke="None">
<path d="
M 175.00 301.00 
C 166.89 297.45 164.58 308.53 166.00 314.00
C 167.92 308.85 169.48 303.14 175.00 301.00 Z"/>
</g>
<g fill="#D7DDE2" fill-opacity="1.00" stroke="None">
<path d="
M 223.00 302.00 
C 223.00 302.00 222.38 301.78 222.00 302.00
C 217.67 307.02 208.15 301.59 203.00 305.00
C 206.12 305.34 212.93 307.64 215.78 306.78 C 218.63 305.91 225.42 304.85 223.00 302.00 Z"/>
</g>
<g fill="#010403" fill-opacity="1.00" stroke="None">
<path d="
M 247.00 309.00 
C 244.84 307.62 241.11 310.51 241.00 313.00
C 243.88 313.33 246.23 311.64 247.00 309.00 Z"/>
</g>
<g fill="#BEC7CD" fill-opacity="1.00" stroke="None">
<path d="
M 145.00 325.00 
C 142.63 321.01 138.99 316.02 137.00 312.00
C 138.88 316.85 141.77 321.11 145.00 325.00 Z"/>
</g>
<g fill="#D7DDE2" fill-opacity="1.00" stroke="None">
<path d="
M 207.00 329.00 
C 208.35 325.31 211.04 328.56 209.77 323.23 C 208.50 317.90 205.31 321.81 202.00 321.00
C 202.77 323.17 202.22 324.26 205.00 325.00
C 205.53 327.68 201.52 328.34 202.00 331.00
C 207.62 329.86 214.33 335.07 218.00 329.00
C 213.68 328.45 211.25 328.45 207.00 329.00 Z"/>
</g>
<g fill="#D7DDE2" fill-opacity="1.00" stroke="None">
<path d="
M 217.00 320.00 
C 213.62 319.97 210.70 323.06 211.00 327.00
C 214.40 328.43 214.81 321.17 215.00 327.00
C 216.54 325.37 216.60 322.30 217.00 320.00 Z"/>
</g>
<g fill="#BEC7CD" fill-opacity="1.00" stroke="None">
<path d="
M 153.00 390.00 
C 154.22 397.45 158.40 403.85 161.30 410.70 C 164.21 417.54 169.88 421.65 174.30 427.70 C 178.73 433.75 184.09 436.06 189.25 441.75 C 194.41 447.44 200.75 449.68 207.68 453.32 C 214.60 456.97 222.77 457.21 230.22 456.22 C 237.67 455.24 246.81 449.33 250.00 452.00
C 250.59 442.54 263.96 446.53 265.00 439.00
C 272.97 444.18 272.97 432.55 277.09 429.08 C 281.20 425.62 285.66 417.07 285.00 411.00
C 286.41 412.39 286.41 418.67 287.00 413.00
C 293.93 413.14 298.30 411.41 304.00 409.00
C 298.19 413.35 307.92 410.49 306.00 417.00
C 302.61 418.34 302.72 413.78 300.00 414.00
C 298.85 416.22 300.03 417.95 299.00 420.00
C 302.52 417.94 306.68 417.66 311.00 418.00
C 310.00 420.50 306.99 418.88 306.00 420.00
C 308.61 423.16 308.59 426.03 307.00 430.00
C 308.92 425.71 310.66 429.01 314.00 430.00
C 313.51 432.67 313.54 434.27 314.00 437.00
C 310.33 436.77 307.65 440.83 308.00 444.00
C 314.73 440.18 321.45 448.21 329.00 446.00
C 326.81 449.86 322.13 446.24 319.00 448.00
C 322.42 452.08 328.34 447.67 333.00 450.00
C 331.32 451.89 328.77 449.33 327.00 452.00
C 331.35 452.88 329.69 455.75 331.00 459.00
C 332.51 456.21 335.63 456.96 338.00 456.00
C 337.18 460.85 329.42 458.99 328.00 464.00
C 331.02 466.26 327.50 469.49 329.00 474.00
C 326.21 472.15 323.65 469.37 319.00 471.00
C 321.28 478.22 327.92 476.02 333.00 476.00
C 330.65 473.42 331.86 471.37 336.00 472.00
C 332.16 477.80 335.59 488.10 330.00 491.00
C 331.73 493.46 332.29 495.22 329.00 497.00
C 332.47 497.79 332.90 500.24 335.00 501.00
C 331.87 496.67 339.56 494.12 335.00 491.00
C 336.73 489.11 338.49 486.25 341.00 485.00
C 336.96 483.37 339.80 476.87 344.00 478.00
C 342.18 475.83 344.29 473.25 345.00 471.00
C 348.00 475.36 352.82 467.14 348.00 467.00
C 352.43 463.50 358.65 465.80 364.00 466.00
C 356.63 467.58 363.37 468.81 360.00 472.00
C 363.95 472.42 367.29 470.65 371.00 470.00
C 371.10 472.78 371.49 475.56 369.00 477.00
C 374.83 484.90 368.53 505.66 364.00 513.00
C 363.89 515.81 367.78 516.17 370.00 516.00
C 366.02 511.77 372.59 509.82 376.00 509.00
C 372.66 507.50 370.21 502.46 376.00 505.00
C 371.62 501.70 374.14 498.96 378.00 497.00
C 368.69 491.00 390.91 487.91 389.00 482.00
C 392.10 482.60 397.72 480.63 397.00 485.00
C 399.45 484.20 399.90 480.51 404.00 482.00
C 404.52 485.29 397.78 483.08 402.00 486.00
C 397.28 487.48 387.53 486.79 389.00 494.00
C 384.02 493.05 379.20 494.33 379.00 500.00
C 381.54 498.47 381.93 496.34 386.00 498.00
C 384.76 494.37 395.58 491.69 396.00 496.00
C 395.75 489.49 397.96 493.66 402.00 491.00
C 399.07 495.39 407.39 493.12 410.00 495.00
C 405.56 498.36 411.81 499.09 411.00 503.00
C 408.55 500.46 405.02 501.15 402.00 500.00
C 399.52 503.36 405.49 506.71 407.00 503.00
C 405.87 506.72 411.24 507.63 411.00 511.00
C 406.47 509.79 398.19 502.56 393.00 508.00
C 395.63 509.19 399.10 510.82 400.00 514.00
C 394.83 513.84 390.65 514.11 386.00 513.00
C 388.75 516.91 394.90 516.38 399.00 515.00
C 398.49 521.33 398.12 526.16 400.00 532.00
C 395.64 529.76 393.54 533.98 397.00 537.00
C 391.42 535.23 392.92 538.07 394.00 542.00
C 390.30 543.60 389.73 545.74 388.00 549.00
C 394.25 547.20 386.61 557.33 387.79 559.57 C 388.96 561.81 390.24 569.98 390.00 575.00
C 388.51 574.72 386.62 575.02 387.00 577.00
L 399.00 577.00
C 399.00 575.33 399.00 573.67 399.00 572.00
C 402.18 572.01 405.34 574.36 407.00 577.00
L 433.00 577.00
L 433.00 545.00
C 422.22 545.51 413.29 552.54 403.00 555.00
C 404.20 546.32 412.59 542.51 419.00 538.00
C 418.35 542.24 412.72 544.41 413.00 549.00
C 420.54 548.43 425.40 541.31 433.00 541.00
L 433.00 521.00
C 426.48 526.22 419.83 531.57 412.00 534.00
C 418.35 528.10 426.54 524.16 433.00 518.00
L 433.00 512.00
C 427.65 517.08 421.54 523.23 414.00 525.00
C 420.43 520.89 427.05 515.53 433.00 510.00
L 433.00 393.00
C 419.56 385.00 404.87 378.96 390.00 374.00
C 386.39 372.80 383.22 370.49 380.00 369.00
C 344.99 360.23 313.20 342.65 279.00 331.00
C 279.38 329.38 278.80 325.67 279.00 325.00
C 278.16 336.50 286.90 347.87 284.00 361.00
C 277.49 356.71 276.42 369.80 276.00 374.00
C 272.24 364.54 276.26 355.81 273.00 348.00
C 262.58 346.44 263.65 360.80 254.00 361.00
C 245.97 373.20 238.46 386.96 224.00 393.00 C 209.54 399.05 192.49 385.26 185.00 375.00
C 183.38 379.13 188.48 380.17 189.00 383.00
C 178.87 382.13 180.23 369.41 173.75 364.25 C 167.28 359.09 165.62 349.46 157.00 347.00
C 153.48 356.66 154.20 372.04 158.00 381.00 C 161.81 389.96 163.56 400.98 169.92 408.08 C 176.27 415.18 183.30 420.98 189.97 427.03 C 196.64 433.08 206.91 432.00 212.23 437.42 C 217.55 442.85 227.00 441.49 233.75 442.19 C 240.49 442.89 247.42 439.91 254.92 433.92 C 262.42 427.93 271.56 422.46 269.00 413.00 C 266.45 403.54 280.06 397.32 275.00 389.00
C 278.62 388.21 282.02 386.75 283.00 383.00
C 281.92 397.49 277.06 411.66 270.30 424.30 C 263.55 436.95 255.09 443.47 242.69 450.69 C 230.30 457.92 213.23 455.65 201.23 448.77 C 189.23 441.90 183.17 432.31 172.75 423.25 C 162.33 414.19 161.05 399.38 153.00 390.00
M 276.00 375.00 
C 275.14 378.96 275.67 382.06 275.00 386.00
C 271.81 384.04 273.48 377.06 276.00 375.00
M 228.00 399.00 
C 228.76 395.01 233.27 396.05 234.00 393.00
C 236.09 394.08 236.41 396.54 239.00 397.00
C 236.19 402.58 241.68 407.77 237.00 411.00
C 244.52 415.57 235.38 413.44 240.92 421.08 C 246.45 428.73 228.63 434.64 222.00 430.00
C 224.17 420.04 216.79 425.72 210.99 423.01 C 205.19 420.30 198.58 420.69 193.25 418.74 C 187.93 416.79 190.00 403.30 187.22 398.78 C 184.44 394.25 181.56 383.83 191.75 390.25 C 201.94 396.67 216.23 400.52 228.00 399.00
M 405.00 565.00 
C 405.41 568.16 401.78 567.77 400.00 569.00
C 398.76 565.22 401.98 564.46 405.00 565.00 Z"/>
</g>
<g fill="#BEC7CD" fill-opacity="1.00" stroke="None">
<path d="
M 148.00 332.00 
C 148.53 333.28 149.49 334.43 148.00 336.00
C 150.16 337.47 151.27 339.50 154.00 338.00
C 151.91 354.34 147.13 372.67 153.00 389.00
C 154.05 379.30 150.09 364.36 153.01 355.01 C 155.93 345.66 158.38 335.34 148.00 331.00
C 148.00 331.00 147.82 331.57 148.00 332.00 Z"/>
</g>
<g fill="#D7DDE2" fill-opacity="1.00" stroke="None">
<path d="
M 0.00 403.00 
L 0.00 486.00
C 9.08 501.73 26.90 508.83 39.00 521.00
C 24.69 514.00 8.97 504.60 0.00 492.00
L 0.00 577.00
L 14.00 577.00
C 14.92 574.01 23.55 574.01 26.00 577.00
L 40.00 577.00
C 36.98 568.02 27.68 562.22 25.00 553.00
C 32.90 556.64 41.24 564.07 47.00 571.00
C 61.66 574.18 52.94 555.65 44.00 556.00
C 44.48 547.21 52.22 555.44 57.00 552.00
C 62.83 559.03 57.81 569.56 63.00 577.00
L 212.00 577.00
C 213.09 575.99 214.59 574.78 216.00 574.00
C 210.16 558.04 207.27 539.71 201.23 521.77 C 195.19 503.84 184.70 489.87 177.00 473.00
C 190.31 484.04 200.24 500.04 206.97 516.03 C 213.71 532.01 213.65 553.40 225.00 567.00
C 223.15 568.51 222.77 571.26 226.00 571.00
C 226.59 573.27 225.15 574.90 225.00 577.00
L 387.00 577.00
C 386.62 575.02 388.51 574.72 390.00 575.00
C 390.24 569.98 388.96 561.81 387.79 559.57 C 386.61 557.33 394.25 547.20 388.00 549.00
C 389.73 545.74 390.30 543.60 394.00 542.00
C 392.92 538.07 391.42 535.23 397.00 537.00
C 393.54 533.98 395.64 529.76 400.00 532.00
C 398.12 526.16 398.49 521.33 399.00 515.00
C 394.90 516.38 388.75 516.91 386.00 513.00
C 390.65 514.11 394.83 513.84 400.00 514.00
C 399.10 510.82 395.63 509.19 393.00 508.00
C 398.19 502.56 406.47 509.79 411.00 511.00
C 411.24 507.63 405.87 506.72 407.00 503.00
C 405.49 506.71 399.52 503.36 402.00 500.00
C 405.02 501.15 408.55 500.46 411.00 503.00
C 411.81 499.09 405.56 498.36 410.00 495.00
C 407.39 493.12 399.07 495.39 402.00 491.00
C 397.96 493.66 395.75 489.49 396.00 496.00
C 395.58 491.69 384.76 494.37 386.00 498.00
C 381.93 496.34 381.54 498.47 379.00 500.00
C 379.20 494.33 384.02 493.05 389.00 494.00
C 387.53 486.79 397.28 487.48 402.00 486.00
C 397.78 483.08 404.52 485.29 404.00 482.00
C 399.90 480.51 399.45 484.20 397.00 485.00
C 397.72 480.63 392.10 482.60 389.00 482.00
C 390.91 487.91 368.69 491.00 378.00 497.00
C 374.14 498.96 371.62 501.70 376.00 505.00
C 370.21 502.46 372.66 507.50 376.00 509.00
C 372.59 509.82 366.02 511.77 370.00 516.00
C 367.78 516.17 363.89 515.81 364.00 513.00
C 368.53 505.66 374.83 484.90 369.00 477.00
C 371.49 475.56 371.10 472.78 371.00 470.00
C 367.29 470.65 363.95 472.42 360.00 472.00
C 363.37 468.81 356.63 467.58 364.00 466.00
C 358.65 465.80 352.43 463.50 348.00 467.00
C 352.82 467.14 348.00 475.36 345.00 471.00
C 344.29 473.25 342.18 475.83 344.00 478.00
C 339.80 476.87 336.96 483.37 341.00 485.00
C 338.49 486.25 336.73 489.11 335.00 491.00
C 339.56 494.12 331.87 496.67 335.00 501.00
C 332.90 500.24 332.47 497.79 329.00 497.00
C 332.29 495.22 331.73 493.46 330.00 491.00
C 335.59 488.10 332.16 477.80 336.00 472.00
C 331.86 471.37 330.65 473.42 333.00 476.00
C 327.92 476.02 321.28 478.22 319.00 471.00
C 323.65 469.37 326.21 472.15 329.00 474.00
C 327.50 469.49 331.02 466.26 328.00 464.00
C 329.42 458.99 337.18 460.85 338.00 456.00
C 335.63 456.96 332.51 456.21 331.00 459.00
C 329.69 455.75 331.35 452.88 327.00 452.00
C 328.77 449.33 331.32 451.89 333.00 450.00
C 328.34 447.67 322.42 452.08 319.00 448.00
C 322.13 446.24 326.81 449.86 329.00 446.00
C 321.45 448.21 314.73 440.18 308.00 444.00
C 307.65 440.83 310.33 436.77 314.00 437.00
C 313.54 434.27 313.51 432.67 314.00 430.00
C 310.66 429.01 308.92 425.71 307.00 430.00
C 308.59 426.03 308.61 423.16 306.00 420.00
C 306.99 418.88 310.00 420.50 311.00 418.00
C 306.68 417.66 302.52 417.94 299.00 420.00
C 300.03 417.95 298.85 416.22 300.00 414.00
C 302.72 413.78 302.61 418.34 306.00 417.00
C 307.92 410.49 298.19 413.35 304.00 409.00
C 298.30 411.41 293.93 413.14 287.00 413.00
C 286.41 418.67 286.41 412.39 285.00 411.00
C 285.66 417.07 281.20 425.62 277.09 429.08 C 272.97 432.55 272.97 444.18 265.00 439.00
C 263.96 446.53 250.59 442.54 250.00 452.00
C 246.81 449.33 237.67 455.24 230.22 456.22 C 222.77 457.21 214.60 456.97 207.68 453.32 C 200.75 449.68 194.41 447.44 189.25 441.75 C 184.09 436.06 178.73 433.75 174.30 427.70 C 169.88 421.65 164.21 417.54 161.30 410.70 C 158.40 403.85 154.22 397.45 153.00 390.00
C 153.00 390.00 152.95 389.49 153.00 389.00
C 147.13 372.67 151.91 354.34 154.00 338.00
C 151.27 339.50 150.16 337.47 148.00 336.00
C 149.49 334.43 148.53 333.28 148.00 332.00
C 147.26 339.29 131.52 338.15 126.25 342.25 C 120.98 346.34 109.72 347.14 103.02 350.03 C 96.33 352.91 88.53 357.19 81.02 359.02 C 73.52 360.86 65.85 366.64 58.02 368.02 C 50.20 369.41 43.04 373.72 36.08 377.08 C 29.12 380.44 22.50 383.15 16.75 388.75 C 10.99 394.35 5.63 397.15 0.00 403.00
M 67.00 489.00 
C 64.49 478.09 66.62 465.36 67.00 454.00
C 72.79 451.72 71.83 442.52 73.78 435.78 C 75.73 429.04 74.22 419.27 78.00 413.00
C 80.02 438.41 69.90 463.69 67.00 489.00
M 298.00 417.00 
C 296.19 419.41 293.31 418.80 291.00 418.00
C 291.53 414.10 295.70 415.98 298.00 417.00
M 26.00 421.00 
C 27.53 424.50 31.86 426.67 31.00 431.00
C 26.91 430.44 22.74 424.39 26.00 421.00
M 306.00 426.00 
C 300.68 422.92 292.72 427.35 288.00 423.00
C 290.77 418.78 293.95 424.17 297.03 423.97 C 300.10 423.78 306.78 419.54 306.00 426.00
M 34.00 469.00 
C 30.88 459.34 26.55 450.07 22.00 441.00
C 31.36 445.77 34.20 460.19 34.00 469.00
M 392.00 510.00 
C 390.23 508.44 387.37 508.69 386.00 507.00
C 387.38 503.44 392.51 506.82 392.00 510.00
M 56.00 519.00 
C 54.29 517.81 51.88 516.35 52.00 514.00
C 53.71 515.19 56.12 516.65 56.00 519.00
M 15.00 529.00 
C 26.15 534.49 37.94 539.88 51.00 540.00
C 52.90 536.93 44.91 536.46 47.79 533.77 C 50.67 531.08 54.70 534.20 58.00 533.00
C 58.00 536.33 58.00 539.67 58.00 543.00
C 49.42 546.10 35.47 552.01 28.00 544.00
C 25.89 547.67 19.54 548.20 17.25 543.75 C 14.95 539.30 10.85 536.71 19.00 537.00
C 9.37 534.75 10.67 524.25 6.00 517.00
C 11.36 518.19 14.00 524.10 15.00 529.00
M 363.00 517.00 
C 369.06 516.25 365.04 522.52 363.00 517.00
M 14.00 572.00 
C 9.47 569.25 7.61 565.22 4.00 561.00
C 8.58 563.24 14.46 567.43 14.00 572.00 Z"/>
</g>
<g fill="#010403" fill-opacity="1.00" stroke="None">
<path d="
M 218.00 339.00 
C 216.92 341.62 215.99 342.27 215.00 344.00
C 219.14 345.27 221.18 342.07 218.00 339.00 Z"/>
</g>
<g fill="#010403" fill-opacity="1.00" stroke="None">
<path d="
M 213.00 347.00 
C 214.59 345.65 213.61 342.26 213.00 341.00
C 210.95 342.97 211.38 344.81 213.00 347.00 Z"/>
</g>
<g fill="#D7DDE2" fill-opacity="1.00" stroke="None">
<path d="
M 390.00 374.00 
C 386.78 372.51 383.61 370.20 380.00 369.00
C 383.22 370.49 386.39 372.80 390.00 374.00 Z"/>
</g>
<g fill="#010403" fill-opacity="1.00" stroke="None">
<path d="
M 276.00 375.00 
C 273.48 377.06 271.81 384.04 275.00 386.00
C 275.67 382.06 275.14 378.96 276.00 375.00 Z"/>
</g>
<g fill="#D7DDE2" fill-opacity="1.00" stroke="None">
<path d="
M 228.00 399.00 
C 216.23 400.52 201.94 396.67 191.75 390.25 C 181.56 383.83 184.44 394.25 187.22 398.78 C 190.00 403.30 187.93 416.79 193.25 418.74 C 198.58 420.69 205.19 420.30 210.99 423.01 C 216.79 425.72 224.17 420.04 222.00 430.00
C 228.63 434.64 246.45 428.73 240.92 421.08 C 235.38 413.44 244.52 415.57 237.00 411.00
C 241.68 407.77 236.19 402.58 239.00 397.00
C 236.41 396.54 236.09 394.08 234.00 393.00
C 233.27 396.05 228.76 395.01 228.00 399.00 Z"/>
</g>
<g fill="#BEC7CD" fill-opacity="1.00" stroke="None">
<path d="
M 67.00 489.00 
C 69.90 463.69 80.02 438.41 78.00 413.00
C 74.22 419.27 75.73 429.04 73.78 435.78 C 71.83 442.52 72.79 451.72 67.00 454.00
C 66.62 465.36 64.49 478.09 67.00 489.00 Z"/>
</g>
<g fill="#BEC7CD" fill-opacity="1.00" stroke="None">
<path d="
M 298.00 417.00 
C 295.70 415.98 291.53 414.10 291.00 418.00
C 293.31 418.80 296.19 419.41 298.00 417.00 Z"/>
</g>
<g fill="#BEC7CD" fill-opacity="1.00" stroke="None">
<path d="
M 26.00 421.00 
C 22.74 424.39 26.91 430.44 31.00 431.00
C 31.86 426.67 27.53 424.50 26.00 421.00 Z"/>
</g>
<g fill="#BEC7CD" fill-opacity="1.00" stroke="None">
<path d="
M 306.00 426.00 
C 306.78 419.54 300.10 423.78 297.03 423.97 C 293.95 424.17 290.77 418.78 288.00 423.00
C 292.72 427.35 300.68 422.92 306.00 426.00 Z"/>
</g>
<g fill="#BEC7CD" fill-opacity="1.00" stroke="None">
<path d="
M 34.00 469.00 
C 34.20 460.19 31.36 445.77 22.00 441.00
C 26.55 450.07 30.88 459.34 34.00 469.00 Z"/>
</g>
<g fill="#BEC7CD" fill-opacity="1.00" stroke="None">
<path d="
M 212.00 577.00 
L 225.00 577.00
C 225.15 574.90 226.59 573.27 226.00 571.00
C 222.77 571.26 223.15 568.51 225.00 567.00
C 213.65 553.40 213.71 532.01 206.97 516.03 C 200.24 500.04 190.31 484.04 177.00 473.00
C 184.70 489.87 195.19 503.84 201.23 521.77 C 207.27 539.71 210.16 558.04 216.00 574.00
C 214.59 574.78 213.09 575.99 212.00 577.00 Z"/>
</g>
<g fill="#BEC7CD" fill-opacity="1.00" stroke="None">
<path d="
M 0.00 492.00 
C 8.97 504.60 24.69 514.00 39.00 521.00
C 26.90 508.83 9.08 501.73 0.00 486.00
L 0.00 492.00 Z"/>
</g>
<g fill="#BEC7CD" fill-opacity="1.00" stroke="None">
<path d="
M 392.00 510.00 
C 392.51 506.82 387.38 503.44 386.00 507.00
C 387.37 508.69 390.23 508.44 392.00 510.00 Z"/>
</g>
<g fill="#010403" fill-opacity="1.00" stroke="None">
<path d="
M 433.00 512.00 
L 433.00 510.00
C 427.05 515.53 420.43 520.89 414.00 525.00
C 421.54 523.23 427.65 517.08 433.00 512.00 Z"/>
</g>
<g fill="#BEC7CD" fill-opacity="1.00" stroke="None">
<path d="
M 56.00 519.00 
C 56.12 516.65 53.71 515.19 52.00 514.00
C 51.88 516.35 54.29 517.81 56.00 519.00 Z"/>
</g>
<g fill="#BEC7CD" fill-opacity="1.00" stroke="None">
<path d="
M 15.00 529.00 
C 14.00 524.10 11.36 518.19 6.00 517.00
C 10.67 524.25 9.37 534.75 19.00 537.00
C 10.85 536.71 14.95 539.30 17.25 543.75 C 19.54 548.20 25.89 547.67 28.00 544.00
C 35.47 552.01 49.42 546.10 58.00 543.00
C 58.00 539.67 58.00 536.33 58.00 533.00
C 54.70 534.20 50.67 531.08 47.79 533.77 C 44.91 536.46 52.90 536.93 51.00 540.00
C 37.94 539.88 26.15 534.49 15.00 529.00 Z"/>
</g>
<g fill="#BEC7CD" fill-opacity="1.00" stroke="None">
<path d="
M 363.00 517.00 
C 365.04 522.52 369.06 516.25 363.00 517.00 Z"/>
</g>
<g fill="#010403" fill-opacity="1.00" stroke="None">
<path d="
M 433.00 521.00 
L 433.00 518.00
C 426.54 524.16 418.35 528.10 412.00 534.00
C 419.83 531.57 426.48 526.22 433.00 521.00 Z"/>
</g>
<g fill="#010403" fill-opacity="1.00" stroke="None">
<path d="
M 433.00 545.00 
L 433.00 541.00
C 425.40 541.31 420.54 548.43 413.00 549.00
C 412.72 544.41 418.35 542.24 419.00 538.00
C 412.59 542.51 404.20 546.32 403.00 555.00
C 413.29 552.54 422.22 545.51 433.00 545.00 Z"/>
</g>
<g fill="#BEC7CD" fill-opacity="1.00" stroke="None">
<path d="
M 40.00 577.00 
L 63.00 577.00
C 57.81 569.56 62.83 559.03 57.00 552.00
C 52.22 555.44 44.48 547.21 44.00 556.00
C 52.94 555.65 61.66 574.18 47.00 571.00
C 41.24 564.07 32.90 556.64 25.00 553.00
C 27.68 562.22 36.98 568.02 40.00 577.00 Z"/>
</g>
<g fill="#BEC7CD" fill-opacity="1.00" stroke="None">
<path d="
M 14.00 572.00 
C 14.46 567.43 8.58 563.24 4.00 561.00
C 7.61 565.22 9.47 569.25 14.00 572.00 Z"/>
</g>
<g fill="#010403" fill-opacity="1.00" stroke="None">
<path d="
M 405.00 565.00 
C 401.98 564.46 398.76 565.22 400.00 569.00
C 401.78 567.77 405.41 568.16 405.00 565.00 Z"/>
</g>
<g fill="#010403" fill-opacity="1.00" stroke="None">
<path d="
M 399.00 577.00 
L 407.00 577.00
C 405.34 574.36 402.18 572.01 399.00 572.00
C 399.00 573.67 399.00 575.33 399.00 577.00 Z"/>
</g>
<g fill="#BEC7CD" fill-opacity="1.00" stroke="None">
<path d="
M 14.00 577.00 
L 26.00 577.00
C 23.55 574.01 14.92 574.01 14.00 577.00 Z"/>
</g>
</svg>